<svg width="696" height="635" viewBox="0 0 696 635" fill="none" xmlns="http://www.w3.org/2000/svg">
<path opacity="0.57885" d="M660.657 67.0068C721.921 147.574 701.521 268.988 615.092 338.191L302.765 588.27C216.336 657.474 96.607 648.261 35.343 567.694C-25.921 487.127 -5.52076 365.713 80.9082 296.51L393.235 46.4305C479.664 -22.7729 599.393 -13.5606 660.657 67.0068Z" fill="#E3E3E3" fill-opacity="0.501925"/>
<mask id="mask0" style="mask-type:alpha" maskUnits="userSpaceOnUse" x="0" y="0" width="696" height="635">
<path d="M660.657 67.0068C721.921 147.574 701.521 268.988 615.092 338.191L302.765 588.27C216.336 657.474 96.607 648.261 35.343 567.694C-25.921 487.127 -5.52076 365.713 80.9082 296.51L393.235 46.4305C479.664 -22.7729 599.393 -13.5606 660.657 67.0068Z" fill="white"/>
</mask>
<g mask="url(#mask0)">
</g>
</svg>
