<svg width="733" height="784" viewBox="0 0 733 784" fill="none" xmlns="http://www.w3.org/2000/svg">
<path opacity="0.57885" d="M71.5707 120.556C141.977 47.8423 265.078 49.698 346.525 124.701L640.848 395.74C722.295 470.743 731.245 590.492 660.839 663.206C590.432 735.92 467.331 734.064 385.884 659.061L91.5614 388.023C10.1146 313.019 1.16447 193.271 71.5707 120.556Z" fill="#E3E3E3" fill-opacity="0.501925"/>
<mask id="mask0" style="mask-type:alpha" maskUnits="userSpaceOnUse" x="24" y="67" width="685" height="650">
<path d="M71.5707 120.556C141.977 47.8423 265.078 49.698 346.525 124.701L640.848 395.74C722.295 470.743 731.245 590.492 660.839 663.206C590.432 735.92 467.331 734.064 385.884 659.061L91.5614 388.023C10.1146 313.019 1.16447 193.271 71.5707 120.556Z" fill="white"/>
</mask>
<g mask="url(#mask0)">
</g>
</svg>
