<svg width="16" height="16" viewBox="0 0 16 16" fill="none" xmlns="http://www.w3.org/2000/svg">
<path fill-rule="evenodd" clip-rule="evenodd" d="M13.3334 8.00421V7.38421C13.3334 7.01602 13.6319 6.71754 14 6.71754C14.3682 6.71754 14.6667 7.01602 14.6667 7.38421V8.00459C14.6649 11.2523 12.5271 14.1119 9.41263 15.0328C6.29821 15.9536 2.94906 14.7163 1.18141 11.9918C-0.586246 9.26726 -0.351325 5.70459 1.75878 3.23578C3.86888 0.766963 7.3515 -0.0198888 10.318 1.30193C10.6544 1.45178 10.8055 1.8459 10.6557 2.18221C10.5058 2.51853 10.1117 2.66968 9.77538 2.51983C7.3482 1.43835 4.49879 2.08213 2.77234 4.10207C1.04589 6.12201 0.853685 9.03692 2.29995 11.2661C3.74621 13.4952 6.48642 14.5076 9.03459 13.7542C11.5828 13.0008 13.3319 10.661 13.3334 8.00421ZM5.8048 6.86614L7.3334 8.39474L14.1953 1.53281C14.4557 1.27246 14.8778 1.27246 15.1381 1.53281C15.3985 1.79316 15.3985 2.21527 15.1381 2.47562L7.8048 9.80895C7.54445 10.0693 7.12234 10.0693 6.86199 9.80895L4.86199 7.80895C4.60164 7.5486 4.60164 7.12649 4.86199 6.86614C5.12234 6.60579 5.54445 6.60579 5.8048 6.86614Z" fill="black"/>
<mask id="mask0" style="mask-type:alpha" maskUnits="userSpaceOnUse" x="0" y="0" width="16" height="16">
<path fill-rule="evenodd" clip-rule="evenodd" d="M13.3334 8.00421V7.38421C13.3334 7.01602 13.6319 6.71754 14 6.71754C14.3682 6.71754 14.6667 7.01602 14.6667 7.38421V8.00459C14.6649 11.2523 12.5271 14.1119 9.41263 15.0328C6.29821 15.9536 2.94906 14.7163 1.18141 11.9918C-0.586246 9.26726 -0.351325 5.70459 1.75878 3.23578C3.86888 0.766963 7.3515 -0.0198888 10.318 1.30193C10.6544 1.45178 10.8055 1.8459 10.6557 2.18221C10.5058 2.51853 10.1117 2.66968 9.77538 2.51983C7.3482 1.43835 4.49879 2.08213 2.77234 4.10207C1.04589 6.12201 0.853685 9.03692 2.29995 11.2661C3.74621 13.4952 6.48642 14.5076 9.03459 13.7542C11.5828 13.0008 13.3319 10.661 13.3334 8.00421ZM5.8048 6.86614L7.3334 8.39474L14.1953 1.53281C14.4557 1.27246 14.8778 1.27246 15.1381 1.53281C15.3985 1.79316 15.3985 2.21527 15.1381 2.47562L7.8048 9.80895C7.54445 10.0693 7.12234 10.0693 6.86199 9.80895L4.86199 7.80895C4.60164 7.5486 4.60164 7.12649 4.86199 6.86614C5.12234 6.60579 5.54445 6.60579 5.8048 6.86614Z" fill="white"/>
</mask>
<g mask="url(#mask0)">
<rect width="16" height="16" fill="white"/>
</g>
</svg>
