<svg width="20" height="20" viewBox="0 0 20 20" fill="none" xmlns="http://www.w3.org/2000/svg">
<path fill-rule="evenodd" clip-rule="evenodd" d="M10.5042 2.5779C11.4131 2.86239 12.2521 3.125 13.1318 3.125C14.5172 3.125 15.9841 2.62926 17.3866 2.02422C18.6225 1.49098 20 2.40149 20 3.74754V13.1193C20 13.752 19.6815 14.3422 19.1518 14.6882C18.1137 15.3665 16.4148 16.25 14.1304 16.25C12.6788 16.25 11.5073 15.8833 10.4333 15.5471C9.52439 15.2626 8.6854 15 7.8057 15C5.59606 15 4.29176 15.4406 2.8125 16.1155V19.375C2.8125 19.7202 2.5327 20 2.1875 20H1.5625C1.2173 20 0.9375 19.7202 0.9375 19.375V3.49852C0.377227 3.1743 0 2.56891 0 1.875C0 0.798088 0.907891 -0.0667948 2.00004 0.00406456C2.89715 0.0622677 3.63543 0.76465 3.73758 1.65785C3.76926 1.93061 3.7407 2.20699 3.65391 2.4675C4.52961 2.12821 5.58437 1.875 6.80707 1.875C8.25867 1.875 9.43024 2.24172 10.5042 2.5779ZM14.1304 14.375C15.7491 14.375 17.2741 13.727 18.125 13.125V3.75C16.8943 4.32164 14.8221 5 13.1318 5C11.9618 5 10.9662 4.68759 9.97036 4.37513C8.97427 4.06259 7.97804 3.75 6.80707 3.75C5.18844 3.75 3.66344 4.39797 2.8125 5V14.0625C4.0409 13.4923 6.11191 13.125 7.8057 13.125C8.97567 13.125 9.97134 13.4374 10.9671 13.7499C11.9632 14.0624 12.9595 14.375 14.1304 14.375Z" fill="#FF6D00"/>
<mask id="mask0" style="mask-type:alpha" maskUnits="userSpaceOnUse" x="0" y="0" width="20" height="20">
<path fill-rule="evenodd" clip-rule="evenodd" d="M10.5042 2.5779C11.4131 2.86239 12.2521 3.125 13.1318 3.125C14.5172 3.125 15.9841 2.62926 17.3866 2.02422C18.6225 1.49098 20 2.40149 20 3.74754V13.1193C20 13.752 19.6815 14.3422 19.1518 14.6882C18.1137 15.3665 16.4148 16.25 14.1304 16.25C12.6788 16.25 11.5073 15.8833 10.4333 15.5471C9.52439 15.2626 8.6854 15 7.8057 15C5.59606 15 4.29176 15.4406 2.8125 16.1155V19.375C2.8125 19.7202 2.5327 20 2.1875 20H1.5625C1.2173 20 0.9375 19.7202 0.9375 19.375V3.49852C0.377227 3.1743 0 2.56891 0 1.875C0 0.798088 0.907891 -0.0667948 2.00004 0.00406456C2.89715 0.0622677 3.63543 0.76465 3.73758 1.65785C3.76926 1.93061 3.7407 2.20699 3.65391 2.4675C4.52961 2.12821 5.58437 1.875 6.80707 1.875C8.25867 1.875 9.43024 2.24172 10.5042 2.5779ZM14.1304 14.375C15.7491 14.375 17.2741 13.727 18.125 13.125V3.75C16.8943 4.32164 14.8221 5 13.1318 5C11.9618 5 10.9662 4.68759 9.97036 4.37513C8.97427 4.06259 7.97804 3.75 6.80707 3.75C5.18844 3.75 3.66344 4.39797 2.8125 5V14.0625C4.0409 13.4923 6.11191 13.125 7.8057 13.125C8.97567 13.125 9.97134 13.4374 10.9671 13.7499C11.9632 14.0624 12.9595 14.375 14.1304 14.375Z" fill="white"/>
</mask>
<g mask="url(#mask0)">
</g>
</svg>
