<svg width="122" height="38" viewBox="0 0 122 38" fill="none" xmlns="http://www.w3.org/2000/svg">
<path fill-rule="evenodd" clip-rule="evenodd" d="M45.3403 10.3778L45.3389 10.3798C45.3246 10.4023 45.3095 10.4242 45.2928 10.445L45.2876 10.4507C45.2729 10.4683 45.2573 10.485 45.2408 10.501C45.2348 10.507 45.2285 10.5126 45.2222 10.5182L45.2197 10.5204C45.2074 10.5315 45.1946 10.5421 45.1813 10.5522L45.1663 10.5638L45.1594 10.5687C45.1396 10.5828 45.1192 10.5959 45.098 10.6076L45.0964 10.6086C45.0739 10.6209 45.0505 10.6316 45.0266 10.6413C45.0228 10.6428 45.019 10.6442 45.0153 10.6456L45.0091 10.6478C44.9907 10.6547 44.972 10.6608 44.9528 10.666L44.9431 10.6687L44.9321 10.6714C44.9134 10.6759 44.8943 10.6794 44.8749 10.6823C44.8683 10.6833 44.8616 10.6845 44.8548 10.6854C44.8309 10.6881 44.8067 10.6898 44.7821 10.6899L44.7776 10.6902L44.7763 10.6901H38.452L35.4566 20.2716L35.4564 20.2721L35.4538 20.2807C35.4532 20.2827 35.4521 20.2845 35.4515 20.2865L35.4499 20.2911C35.4463 20.3019 35.4429 20.3128 35.4388 20.3234L35.4371 20.3274C35.4353 20.3323 35.4332 20.3371 35.431 20.3418L35.4266 20.3518L35.4241 20.3573C35.4206 20.3654 35.417 20.3735 35.4131 20.3813L35.4113 20.3851L35.4106 20.3863L35.4074 20.3925L35.4012 20.4034L35.3972 20.4105L35.3945 20.4154C35.3906 20.4223 35.3867 20.4292 35.3825 20.436L35.378 20.4432C35.3744 20.4488 35.3705 20.4543 35.3666 20.4598L35.3627 20.4653L35.3607 20.4684C35.3583 20.4716 35.3563 20.475 35.354 20.4783L35.3474 20.4869L35.3391 20.4977C35.3356 20.5022 35.3318 20.5065 35.328 20.5109L35.3238 20.5158L35.3209 20.5192L35.3151 20.526L35.3077 20.5345L35.2945 20.5486L35.2891 20.5544L35.2849 20.5582L35.2814 20.5614L35.2804 20.5624L35.2768 20.5658L35.271 20.5714L35.2631 20.5788C35.2571 20.5843 35.2512 20.5896 35.245 20.5948L35.2401 20.5993C35.2384 20.6007 35.2364 20.6016 35.2347 20.603C35.2277 20.6087 35.2206 20.6144 35.2133 20.6198L35.2102 20.6222L35.2063 20.6253C35.2022 20.6282 35.198 20.631 35.1938 20.6337L35.1872 20.6381C35.1775 20.6447 35.1675 20.6509 35.1574 20.657L35.1511 20.661L35.1511 20.661L35.151 20.661L35.1474 20.6633L35.1439 20.6654C35.1419 20.6666 35.1398 20.6674 35.1378 20.6685L35.1341 20.6703C35.1216 20.6771 35.1089 20.6834 35.096 20.6894L35.0904 20.6923L35.0861 20.6945L35.0835 20.6957L18.9419 27.7848L14.0701 37.6275L14.0683 37.6306L14.0664 37.6337C14.0528 37.6604 14.038 37.6863 14.0212 37.7107L14.0197 37.7127C14.0041 37.735 13.987 37.756 13.969 37.7761C13.9647 37.781 13.9604 37.7859 13.956 37.7907C13.9381 37.8096 13.9192 37.8275 13.8994 37.8441C13.8953 37.8476 13.891 37.8509 13.8867 37.8542L13.8865 37.8544L13.8864 37.8544L13.8836 37.8566C13.8657 37.8706 13.8472 37.8838 13.828 37.8961C13.8239 37.8987 13.82 37.9015 13.8158 37.9041C13.793 37.9179 13.7692 37.9301 13.7448 37.9411L13.7304 37.9473C13.68 37.9686 13.6268 37.9837 13.5718 37.992L13.5559 37.9942C13.5289 37.9976 13.5018 37.9999 13.4742 37.9999H13.4739L13.4729 38C13.4421 38 13.4113 37.997 13.3804 37.9926C13.3776 37.9923 13.3748 37.9925 13.3719 37.992C13.3634 37.9907 13.3553 37.9884 13.347 37.9868L13.3385 37.9851C13.3301 37.9835 13.3217 37.9819 13.3133 37.9798C13.2964 37.9756 13.2798 37.9704 13.2634 37.9649L13.2559 37.9625L13.2558 37.9625L13.2507 37.961L13.2455 37.9592C13.2216 37.9504 13.1983 37.9403 13.1758 37.929L13.175 37.9287L13.1681 37.9247C13.151 37.9158 13.1343 37.9065 13.1182 37.8962C13.1143 37.8938 13.1105 37.8911 13.1068 37.8884L13.1066 37.8883L13.0995 37.8833L13.0973 37.8818C13.0865 37.8744 13.0757 37.867 13.0655 37.859C13.0578 37.8529 13.0505 37.8465 13.0431 37.8401L13.0395 37.8369L13.0268 37.826C13.0235 37.8231 13.0202 37.8202 13.017 37.8172C13.0073 37.808 12.9983 37.7983 12.9893 37.7886L12.9826 37.7815L12.9826 37.7815L12.9825 37.7815L12.9825 37.7814L12.9825 37.7814L12.9825 37.7814C12.9791 37.7779 12.9758 37.7744 12.9726 37.7707C12.9637 37.7604 12.9554 37.7497 12.9471 37.7389L12.9426 37.7331C12.9392 37.7287 12.9357 37.7243 12.9324 37.7197C12.925 37.7093 12.9182 37.6985 12.9115 37.6877L12.9098 37.6851L12.9066 37.6801L12.9017 37.6724L12.897 37.6646C12.8914 37.6548 12.8865 37.6447 12.8813 37.6346L12.8796 37.6313L12.8725 37.6173L12.867 37.6058C12.863 37.5971 12.8596 37.5881 12.856 37.5792L12.8554 37.5776C12.851 37.5666 12.8466 37.5557 12.8428 37.5446L12.8398 37.5354L12.8371 37.5261L12.8354 37.5202L12.8341 37.5159L12.8296 37.5002C12.8279 37.4942 12.8263 37.4881 12.8248 37.482C12.8235 37.4764 12.8224 37.4708 12.8214 37.4651L12.8198 37.4567L12.819 37.453L12.819 37.453C12.8168 37.4415 12.8145 37.4301 12.8129 37.4185L12.8117 37.4085L12.8107 37.3969L12.8099 37.3873L12.8091 37.3791L12.8079 37.3657L12.8072 37.3544C12.8067 37.3414 12.807 37.3285 12.8072 37.3155L12.8073 37.3116L12.8074 37.303C12.8074 37.2984 12.8074 37.2939 12.8077 37.2892C12.8087 37.2702 12.8109 37.251 12.8135 37.2319C12.8139 37.2291 12.8139 37.2264 12.8143 37.2236L12.8147 37.2215L12.8157 37.2149L15.5984 18.9437L0.274804 7.6863C0.272015 7.68425 0.269457 7.68208 0.266899 7.67991L0.266894 7.67991L0.266882 7.6799L0.26102 7.67507C0.251237 7.66743 0.241543 7.6597 0.232116 7.65153C0.223934 7.64443 0.216197 7.63716 0.20846 7.62979C0.200723 7.62242 0.193164 7.61497 0.185871 7.60724C0.1776 7.59862 0.169685 7.58981 0.162037 7.58083C0.155811 7.57355 0.149764 7.5661 0.143805 7.55855C0.136246 7.54894 0.128954 7.53915 0.122017 7.52917C0.116503 7.52127 0.111167 7.51318 0.106009 7.50501C0.0997834 7.49513 0.093647 7.48515 0.0879552 7.475C0.0827971 7.46584 0.0779057 7.4565 0.0731033 7.44706C0.0683898 7.43754 0.0637653 7.42793 0.0594076 7.41823C0.0546941 7.40763 0.0502474 7.39685 0.0460675 7.38598C0.0425102 7.3769 0.0392197 7.36783 0.036107 7.35858C0.0321939 7.34699 0.0286366 7.3354 0.025346 7.32354C0.022767 7.31429 0.0204547 7.30495 0.0182314 7.29551C0.0155634 7.28392 0.0130732 7.27225 0.0110278 7.26048C0.00916015 7.25006 0.00755935 7.23954 0.00622534 7.22894C0.00489134 7.21816 0.00364627 7.20747 0.00275694 7.1966C0.00168974 7.18421 0.00124507 7.17181 0.000889335 7.15941L0.000465482 7.15175L0.000465414 7.15175C0.000232838 7.14835 0 7.14494 0 7.14145C0 7.13889 0.000225649 7.13642 0.000451907 7.13394L0.000452018 7.13394L0.000711468 7.13093C0.000889335 7.11773 0.00168974 7.10443 0.002668 7.09123L0.00291377 7.08753C0.00344233 7.07953 0.00396644 7.0716 0.00489134 7.06374C0.00631428 7.05116 0.00844868 7.03867 0.0105831 7.02619L0.0120638 7.01755C0.0131879 7.01088 0.0143128 7.00421 0.0157412 6.99762C0.018142 6.98621 0.021254 6.9749 0.0243661 6.96358L0.0243678 6.96357L0.0254257 6.95963L0.0254275 6.95962C0.0278192 6.9507 0.0302041 6.94181 0.0329943 6.93312C0.03561 6.92505 0.038619 6.91709 0.0416194 6.90916L0.0416225 6.90915L0.0439331 6.90302L0.0452761 6.89945L0.0452777 6.89944C0.0489099 6.88977 0.0525336 6.88012 0.0566506 6.87068C0.0599601 6.86324 0.0635877 6.85585 0.0672106 6.84848L0.0691902 6.84445C0.074793 6.83304 0.0803959 6.82172 0.0865323 6.81067C0.0898769 6.80467 0.0935359 6.79873 0.0971876 6.79279L0.0971956 6.79278L0.100495 6.78741C0.107521 6.77609 0.114546 6.76486 0.122195 6.7539L0.124699 6.74997L0.127797 6.74518C0.129757 6.74251 0.131825 6.74003 0.133897 6.73754L0.133901 6.73754L0.138914 6.73135C0.146473 6.72138 0.154211 6.71158 0.162304 6.70206C0.16924 6.69389 0.176355 6.68598 0.183648 6.67826C0.191029 6.67044 0.198411 6.6628 0.206148 6.65535C0.214596 6.64717 0.223312 6.63927 0.232116 6.63154C0.239409 6.62516 0.24679 6.61896 0.254439 6.61285C0.263866 6.60531 0.273382 6.59803 0.283164 6.59112C0.291168 6.58546 0.299261 6.57998 0.307532 6.57459C0.317137 6.56839 0.326831 6.56237 0.336702 6.55671C0.345951 6.55132 0.355378 6.54629 0.364894 6.54135C0.374143 6.53659 0.383481 6.532 0.392908 6.52769C0.403491 6.52284 0.414252 6.51835 0.425191 6.51404C0.434084 6.51053 0.442978 6.50721 0.45196 6.50415C0.463521 6.50011 0.475083 6.49652 0.486911 6.49319C0.496071 6.49059 0.505231 6.48816 0.51448 6.48601C0.525953 6.48331 0.537514 6.4808 0.549253 6.47873C0.559569 6.47693 0.569975 6.47532 0.58038 6.47397C0.590963 6.47262 0.601635 6.47136 0.612396 6.47047C0.624669 6.46948 0.636942 6.46894 0.649214 6.46858L0.6568 6.46815H0.656808H0.656816H0.656823H0.656831C0.660189 6.46792 0.663552 6.46768 0.667001 6.46768H5.82479L1.56914 1.09419C1.56666 1.0911 1.56447 1.08789 1.56228 1.08468L1.56228 1.08468L1.56228 1.08468L1.56227 1.08468L1.56227 1.08468L1.56227 1.08468L1.56227 1.08467L1.55767 1.07811C1.55029 1.06823 1.543 1.05826 1.53615 1.04793C1.53019 1.03903 1.52468 1.02996 1.51925 1.0208L1.518 1.01867C1.51282 1.00987 1.50766 1.00111 1.50289 0.99205C1.49755 0.981988 1.49257 0.971837 1.48777 0.961595C1.48332 0.952163 1.47905 0.94264 1.47505 0.933028C1.47069 0.922517 1.46669 0.911827 1.46287 0.901136C1.45931 0.891165 1.45593 0.881103 1.45282 0.870952C1.4497 0.860531 1.44686 0.85011 1.44419 0.839599C1.44134 0.828639 1.43885 0.81768 1.43663 0.80654C1.43467 0.796568 1.4329 0.786507 1.43138 0.776445C1.42961 0.764767 1.428 0.753088 1.42685 0.74123C1.42587 0.731258 1.42516 0.721376 1.42463 0.711405C1.424 0.699636 1.42347 0.687868 1.42347 0.676009C1.42347 0.665409 1.42382 0.654808 1.42427 0.644208C1.42471 0.633158 1.42525 0.622108 1.42632 0.610969C1.42738 0.599021 1.42907 0.587163 1.43076 0.575304L1.43176 0.566927C1.43218 0.562928 1.43261 0.558936 1.43334 0.554912L1.4345 0.549751L1.43548 0.545569C1.43772 0.533613 1.44064 0.521827 1.44358 0.509963L1.44384 0.508916L1.44557 0.501888C1.44735 0.494603 1.44913 0.487328 1.45122 0.480259C1.45394 0.470876 1.45722 0.461616 1.46049 0.452378L1.46049 0.452377L1.46049 0.452375L1.46049 0.452374L1.46049 0.452372L1.46049 0.452371L1.4605 0.452369L1.46251 0.44666L1.46521 0.438931L1.46521 0.438929L1.46521 0.438928C1.46771 0.431698 1.47021 0.424483 1.47309 0.417464C1.4764 0.409284 1.48016 0.401273 1.48392 0.393253L1.48392 0.393247L1.48688 0.38692L1.49011 0.379879L1.49011 0.379872L1.49012 0.379855C1.49354 0.372373 1.49697 0.364873 1.50075 0.357634C1.50456 0.350356 1.50878 0.343288 1.51302 0.336189L1.51302 0.336188L1.51302 0.336186L1.51302 0.336183L1.51303 0.336181L1.51694 0.329605L1.51989 0.32452C1.52447 0.316612 1.52903 0.308748 1.53401 0.301127C1.53847 0.294411 1.54329 0.287855 1.54812 0.281294L1.54813 0.281291L1.55242 0.275435L1.55528 0.271465C1.56098 0.263523 1.56669 0.255581 1.57279 0.248035C1.57737 0.242349 1.58229 0.236858 1.58723 0.231346L1.59253 0.225396L1.59712 0.220229C1.60365 0.212867 1.61016 0.205524 1.61708 0.198536C1.62203 0.193537 1.62722 0.188742 1.63241 0.183959L1.63753 0.179221C1.64705 0.170327 1.65656 0.161524 1.66652 0.153259L1.66967 0.150431L1.67328 0.14724C1.67616 0.144899 1.67917 0.142788 1.68218 0.14068L1.68902 0.135741C1.6989 0.128195 1.70886 0.120828 1.71917 0.113821C1.72798 0.107892 1.73696 0.102322 1.74594 0.0968423C1.75528 0.0910928 1.76471 0.0855231 1.7744 0.0802228C1.78436 0.0748327 1.79441 0.0698019 1.80455 0.0649508C1.81398 0.0604591 1.82331 0.0560571 1.83292 0.0520146C1.84332 0.0476126 1.85373 0.04357 1.86431 0.0397071C1.87436 0.0360239 1.88432 0.0326102 1.89455 0.0294659C1.90469 0.0263217 1.91492 0.023447 1.92514 0.0208418C1.93617 0.017967 1.9472 0.0153618 1.9584 0.0131159C1.9681 0.0112294 1.97779 0.00952253 1.98757 0.00799533C1.99931 0.00610879 2.01114 0.00449176 2.02306 0.0033239C2.03266 0.00242555 2.04236 0.00170687 2.05196 0.00116786C2.06379 0.000449176 2.07562 0 2.08754 0C2.09794 0 2.10835 0.000359341 2.11875 0.000808516C2.12969 0.00125769 2.14054 0.0017967 2.15157 0.00287472C2.16357 0.00404258 2.17549 0.00574945 2.1875 0.00754615L2.19608 0.00860059C2.19976 0.0090023 2.20344 0.00940362 2.20715 0.0100615L22.1249 3.6032L22.1365 3.60553C22.1428 3.60674 22.149 3.60828 22.1551 3.60981L22.1641 3.612L22.1747 3.6144C22.1813 3.61583 22.1879 3.61726 22.1945 3.61919L22.1971 3.62003L22.1988 3.62063C22.2081 3.62339 22.2172 3.62669 22.2263 3.62999L22.2327 3.6323L22.2412 3.63519C22.2479 3.63745 22.2546 3.63971 22.2611 3.64237C22.2708 3.64632 22.2801 3.65117 22.2897 3.65557L22.2983 3.65949C22.3058 3.66285 22.3132 3.66621 22.3204 3.67004C22.3259 3.67297 22.3313 3.67622 22.3367 3.67948L22.3447 3.68432L22.3538 3.68958C22.3615 3.69402 22.3692 3.69846 22.3766 3.70336C22.3806 3.7061 22.3846 3.70906 22.3885 3.71201L22.3965 3.71792L22.3988 3.71962L22.4074 3.72584L22.4074 3.72588L22.4074 3.7259C22.4147 3.7311 22.4219 3.73632 22.4288 3.7419C22.4391 3.75026 22.4486 3.75924 22.4583 3.76814L22.4648 3.7739C22.4689 3.77747 22.473 3.78104 22.4768 3.78484C22.4864 3.79426 22.4953 3.80432 22.5042 3.81433L22.5058 3.81611L22.5115 3.82238C22.5146 3.82565 22.5177 3.82891 22.5205 3.83237L22.5263 3.83928L22.5272 3.84027L28.5836 11.3176L38.7723 5.8285L38.7746 5.82743C38.7814 5.82383 38.7885 5.82069 38.7954 5.81728C38.8056 5.81233 38.8157 5.80739 38.8261 5.80299C38.8291 5.80173 38.8319 5.80012 38.8348 5.79895C38.8418 5.79607 38.849 5.79383 38.8561 5.79122C38.8657 5.78763 38.8753 5.78413 38.8851 5.78098C38.8962 5.77739 38.9075 5.77433 38.9189 5.77137L38.9242 5.77001C38.9316 5.76812 38.9389 5.76623 38.9463 5.76463L38.9526 5.76308L38.9563 5.76217L38.961 5.76113C38.965 5.76032 38.969 5.76005 38.9731 5.75933L38.9821 5.75798L38.9956 5.75592L39.0096 5.75403L39.0166 5.75307L39.0257 5.75187L39.0301 5.75165L39.0334 5.75152L39.0452 5.75098C39.0551 5.75035 39.065 5.74981 39.075 5.74963C39.0858 5.74945 39.0968 5.74972 39.1077 5.75008C39.1192 5.75044 39.1306 5.75098 39.142 5.75197L39.1564 5.75344L39.1701 5.75511C39.1832 5.75682 39.1962 5.75879 39.2092 5.76122C39.2124 5.76185 39.2156 5.76212 39.2188 5.76275C39.2237 5.76373 39.2285 5.76526 39.2334 5.76634C39.2462 5.7693 39.2589 5.77245 39.2716 5.77622L39.2833 5.77954L39.287 5.78053C39.2911 5.78179 39.2948 5.78359 39.2988 5.78493C39.3098 5.78862 39.3206 5.79257 39.3315 5.79688C39.3361 5.79868 39.3407 5.80039 39.3453 5.80236C39.352 5.80524 39.3584 5.80838 39.3649 5.81144C39.3731 5.81521 39.3812 5.81898 39.3892 5.82311L39.3894 5.82321L39.396 5.82658L39.4041 5.83084L39.4122 5.83543L39.4185 5.83921L39.4279 5.84485L39.4333 5.84788C39.4354 5.84903 39.4376 5.85019 39.4397 5.8515L45.1314 9.44491C45.1343 9.44662 45.1368 9.44877 45.1395 9.45057C45.1504 9.45767 45.1608 9.46512 45.1712 9.47285L45.1754 9.47597C45.1819 9.48075 45.1885 9.48554 45.1947 9.49063C45.203 9.49731 45.211 9.50443 45.2189 9.51156L45.2191 9.51175C45.2278 9.51956 45.2366 9.52729 45.2449 9.53546C45.2491 9.53961 45.253 9.54391 45.257 9.54822L45.2631 9.55487C45.272 9.56439 45.2809 9.57382 45.2892 9.58379C45.2946 9.59035 45.2995 9.59718 45.3047 9.60392L45.3066 9.60647C45.3139 9.61595 45.3212 9.62546 45.3279 9.63527C45.3319 9.64111 45.3356 9.64719 45.3393 9.65331L45.3394 9.65337L45.3394 9.65345L45.3434 9.66006L45.3468 9.66544C45.3517 9.6734 45.3566 9.68132 45.3611 9.68953C45.3669 9.70004 45.3719 9.71091 45.3772 9.72169C45.3812 9.73004 45.3855 9.73822 45.3892 9.74675C45.3938 9.75751 45.3978 9.76846 45.4018 9.7795L45.4036 9.78431C45.4063 9.79194 45.4093 9.79949 45.4118 9.80721C45.4154 9.81849 45.4184 9.83005 45.4215 9.84165L45.4215 9.84184L45.4225 9.84566C45.4246 9.85402 45.427 9.86237 45.4289 9.87082C45.4311 9.88085 45.4328 9.89115 45.4344 9.90142L45.4352 9.90621L45.4359 9.91051C45.4374 9.91941 45.4389 9.92832 45.4399 9.93729C45.441 9.94624 45.4417 9.95526 45.4423 9.96429L45.4425 9.96793C45.4434 9.9806 45.4442 9.99326 45.4444 10.0059L45.4446 10.0105L45.4449 10.0162C45.4449 10.0195 45.4447 10.0227 45.4445 10.0259L45.444 10.0332C45.4437 10.0466 45.4431 10.06 45.442 10.0734L45.4407 10.0874L45.439 10.1014C45.4374 10.1138 45.4356 10.1261 45.4334 10.1385C45.4315 10.1487 45.4294 10.1587 45.427 10.1687C45.4246 10.1798 45.4218 10.1907 45.4187 10.2017C45.417 10.2075 45.4153 10.2133 45.4135 10.2191L45.4084 10.2346C45.4052 10.2441 45.4018 10.2536 45.3981 10.263C45.3933 10.2749 45.3884 10.2866 45.383 10.2982L45.3798 10.3053C45.377 10.3112 45.3743 10.317 45.3713 10.3229C45.3651 10.3351 45.3585 10.3469 45.3515 10.3587L45.3479 10.3653C45.3465 10.368 45.3451 10.3707 45.3435 10.3733L45.3424 10.375L45.3403 10.3778ZM34.5528 18.687L37.958 7.79418L29.4449 12.3806L34.5528 18.687ZM3.7188 1.65137L21.0876 4.78437L16.1251 17.3164L3.7188 1.65137ZM17.2758 18.0387L33.3136 19.2849L22.2106 5.57689L17.2758 18.0387ZM18.9098 26.3297L17.1908 19.384L32.0888 20.5416L18.9098 26.3297ZM14.7796 33.1805L17.7468 27.186L16.4751 22.0478L14.7796 33.1805ZM12.699 15.1476L2.71816 7.81515H6.89199L12.699 15.1476ZM42.4523 9.34221L39.463 7.45495L38.873 9.34221H42.4523Z" fill="white"/>
<path fill-rule="evenodd" clip-rule="evenodd" d="M25.33 31.5112C25.33 30.0357 25.8794 28.7685 26.9783 27.7094C28.0725 26.6503 29.3875 26.1207 30.9232 26.1207C32.4405 26.1207 33.7416 26.6548 34.8267 27.723C35.9164 28.7911 36.4612 30.0742 36.4612 31.5723C36.4612 33.0795 35.9141 34.3581 34.8198 35.4082C33.7209 36.4627 32.3945 36.99 30.8404 36.99C29.4657 36.99 28.2312 36.5216 27.1369 35.5847C25.9323 34.5482 25.33 33.1904 25.33 31.5112ZM26.9507 31.5316C26.9507 32.6903 27.3461 33.643 28.1369 34.3898C28.9231 35.1366 29.8312 35.51 30.8611 35.51C31.9784 35.51 32.9209 35.1298 33.6887 34.3694C34.4566 33.6 34.8405 32.6631 34.8405 31.5588C34.8405 30.4408 34.4612 29.5039 33.7025 28.7481C32.9485 27.9877 32.0151 27.6075 30.9025 27.6075C29.7944 27.6075 28.8588 27.9877 28.0955 28.7481C27.3323 29.4994 26.9507 30.4272 26.9507 31.5316ZM38.3057 30.1876H39.8644V30.7986C40.4069 30.2691 41.0184 30.0043 41.6989 30.0043C42.4805 30.0043 43.0897 30.2465 43.5265 30.7307C43.9036 31.1426 44.0921 31.8147 44.0921 32.7471V36.8002H42.5334V33.1069C42.5334 32.4552 42.4415 32.0048 42.2575 31.7559C42.0782 31.5024 41.7518 31.3757 41.2782 31.3757C40.7633 31.3757 40.3977 31.5432 40.1816 31.8781C39.9701 32.2085 39.8644 32.7856 39.8644 33.6093V36.8002H38.3057V30.1876ZM47.7229 25.3334V36.8001H46.1711V25.3334H47.7229ZM51.3606 30.1874V36.8H49.8088V30.1874H51.3606ZM49.5744 27.4379C49.5744 27.1709 49.6732 26.9401 49.8709 26.7454C50.0686 26.5508 50.3054 26.4535 50.5813 26.4535C50.8618 26.4535 51.1008 26.5508 51.2986 26.7454C51.4963 26.9355 51.5951 27.1686 51.5951 27.4447C51.5951 27.7208 51.4963 27.9562 51.2986 28.1508C51.1054 28.3454 50.8687 28.4427 50.5882 28.4427C50.3077 28.4427 50.0686 28.3454 49.8709 28.1508C49.6732 27.9562 49.5744 27.7185 49.5744 27.4379ZM53.4466 30.1876H55.0052V30.7986C55.5478 30.2691 56.1593 30.0043 56.8397 30.0043C57.6214 30.0043 58.2306 30.2465 58.6674 30.7307C59.0444 31.1426 59.2329 31.8147 59.2329 32.7471V36.8002H57.6742V33.1069C57.6742 32.4552 57.5823 32.0048 57.3984 31.7559C57.2191 31.5024 56.8926 31.3757 56.419 31.3757C55.9041 31.3757 55.5386 31.5432 55.3225 31.8781C55.111 32.2085 55.0052 32.7856 55.0052 33.6093V36.8002H53.4466V30.1876ZM67.4293 33.8537H62.6154C62.6568 34.3968 62.8361 34.8291 63.1534 35.1504C63.4706 35.4672 63.8775 35.6256 64.3741 35.6256C64.7603 35.6256 65.0798 35.5351 65.3327 35.3541C65.581 35.173 65.8638 34.8381 66.181 34.3493L67.4914 35.0689C67.2891 35.4084 67.0753 35.6992 66.85 35.9413C66.6247 36.1835 66.3833 36.3826 66.1258 36.5388C65.8684 36.6949 65.5902 36.8092 65.2913 36.8816C64.9925 36.954 64.6683 36.9902 64.3189 36.9902C63.3166 36.9902 62.512 36.6734 61.905 36.0398C61.2981 35.4016 60.9947 34.5552 60.9947 33.5007C60.9947 32.4552 61.2889 31.6088 61.8775 30.9616C62.4706 30.3234 63.2568 30.0043 64.2361 30.0043C65.2247 30.0043 66.0063 30.3143 66.581 30.9344C67.1511 31.55 67.4362 32.4031 67.4362 33.4939L67.4293 33.8537ZM65.8362 32.6046C65.6201 31.7899 65.0982 31.3826 64.2706 31.3826C64.0821 31.3826 63.9051 31.4109 63.7396 31.4675C63.5741 31.524 63.4235 31.6055 63.2878 31.7119C63.1522 31.8182 63.0361 31.9461 62.9396 32.0955C62.843 32.2448 62.7694 32.4145 62.7189 32.6046H65.8362ZM69.5428 36.8003V26.318H71.7773C72.8486 26.318 73.6946 26.4221 74.3153 26.6303C74.9819 26.834 75.5866 27.1802 76.1291 27.669C77.228 28.6557 77.7774 29.9524 77.7774 31.5591C77.7774 33.1704 77.205 34.4739 76.0601 35.4696C75.4854 35.9675 74.8831 36.3137 74.2532 36.5083C73.6647 36.703 72.8302 36.8003 71.7497 36.8003H69.5428ZM71.1497 35.3135H71.8739C72.5958 35.3135 73.1958 35.2388 73.6739 35.0894C74.1521 34.931 74.5843 34.6798 74.9705 34.3358C75.7613 33.6253 76.1567 32.6997 76.1567 31.5591C76.1567 30.4095 75.7659 29.4772 74.9843 28.762C74.2808 28.1239 73.2441 27.8048 71.8739 27.8048H71.1497V35.3135ZM81.1737 30.1874V36.8H79.622V30.1874H81.1737ZM79.3875 27.4379C79.3875 27.1709 79.4864 26.9401 79.6841 26.7454C79.8818 26.5508 80.1186 26.4535 80.3944 26.4535C80.6749 26.4535 80.914 26.5508 81.1117 26.7454C81.3094 26.9355 81.4083 27.1686 81.4083 27.4447C81.4083 27.7208 81.3094 27.9562 81.1117 28.1508C80.9186 28.3454 80.6818 28.4427 80.4013 28.4427C80.1209 28.4427 79.8818 28.3454 79.6841 28.1508C79.4864 27.9562 79.3875 27.7185 79.3875 27.4379ZM84.0941 30.1874L85.8321 33.9011L87.5632 30.1874H89.308L85.8183 37.2548L82.3562 30.1874H84.0941ZM89.8906 33.4464C89.8906 32.4914 90.2377 31.679 90.932 31.0091C91.6263 30.3392 92.4722 30.0043 93.47 30.0043C94.4723 30.0043 95.3229 30.3415 96.0218 31.0159C96.7114 31.6903 97.0563 32.5185 97.0563 33.5007C97.0563 34.4919 96.7091 35.3224 96.0149 35.9923C95.316 36.6576 94.4585 36.9902 93.4424 36.9902C92.4355 36.9902 91.5918 36.6508 90.9113 35.9719C90.2308 35.302 89.8906 34.4602 89.8906 33.4464ZM91.4768 33.4736C91.4768 34.1344 91.6561 34.6572 92.0148 35.0419C92.3826 35.4311 92.8676 35.6258 93.47 35.6258C94.0769 35.6258 94.5619 35.4334 94.9252 35.0487C95.2884 34.664 95.47 34.1503 95.47 33.5076C95.47 32.8649 95.2884 32.3512 94.9252 31.9665C94.5573 31.5772 94.0723 31.3826 93.47 31.3826C92.8768 31.3826 92.3964 31.5772 92.0285 31.9665C91.6607 32.3557 91.4768 32.8581 91.4768 33.4736ZM98.818 30.1876H100.37V30.7783C100.655 30.4841 100.908 30.2827 101.128 30.174C101.354 30.0609 101.62 30.0043 101.928 30.0043C102.338 30.0043 102.765 30.1356 103.211 30.3981L102.501 31.7966C102.207 31.5884 101.919 31.4843 101.639 31.4843C100.793 31.4843 100.37 32.1134 100.37 33.3717V36.8002H98.818V30.1876ZM109.325 30.4728V32.5027C108.971 32.0772 108.654 31.7853 108.373 31.6269C108.097 31.464 107.773 31.3825 107.401 31.3825C106.817 31.3825 106.332 31.5839 105.945 31.9867C105.559 32.3895 105.366 32.8942 105.366 33.5007C105.366 34.1207 105.552 34.6299 105.925 35.0282C106.302 35.4265 106.782 35.6256 107.366 35.6256C107.739 35.6256 108.067 35.5464 108.352 35.388C108.628 35.2341 108.952 34.9354 109.325 34.4919V36.5082C108.695 36.8296 108.065 36.9902 107.435 36.9902C106.396 36.9902 105.527 36.6598 104.828 35.999C104.129 35.3337 103.78 34.5077 103.78 33.521C103.78 32.5344 104.134 31.7016 104.842 31.0227C105.55 30.3438 106.419 30.0043 107.449 30.0043C108.111 30.0043 108.736 30.1605 109.325 30.4728ZM112.5 30.1874V36.8H110.949V30.1874H112.5ZM110.714 27.4379C110.714 27.1709 110.813 26.9401 111.011 26.7454C111.208 26.5508 111.445 26.4535 111.721 26.4535C112.002 26.4535 112.241 26.5508 112.438 26.7454C112.636 26.9355 112.735 27.1686 112.735 27.4447C112.735 27.7208 112.636 27.9562 112.438 28.1508C112.245 28.3454 112.008 28.4427 111.728 28.4427C111.448 28.4427 111.208 28.3454 111.011 28.1508C110.813 27.9562 110.714 27.7185 110.714 27.4379ZM114.269 33.4464C114.269 32.4914 114.616 31.679 115.311 31.0091C116.005 30.3392 116.851 30.0043 117.849 30.0043C118.851 30.0043 119.701 30.3415 120.4 31.0159C121.09 31.6903 121.435 32.5185 121.435 33.5007C121.435 34.4919 121.088 35.3224 120.393 35.9923C119.695 36.6576 118.837 36.9902 117.821 36.9902C116.814 36.9902 115.97 36.6508 115.29 35.9719C114.609 35.302 114.269 34.4602 114.269 33.4464ZM115.855 33.4736C115.855 34.1344 116.035 34.6572 116.393 35.0419C116.761 35.4311 117.246 35.6258 117.849 35.6258C118.455 35.6258 118.94 35.4334 119.304 35.0487C119.667 34.664 119.849 34.1503 119.849 33.5076C119.849 32.8649 119.667 32.3512 119.304 31.9665C118.936 31.5772 118.451 31.3826 117.849 31.3826C117.255 31.3826 116.775 31.5772 116.407 31.9665C116.039 32.3557 115.855 32.8581 115.855 33.4736Z" fill="white"/>
</svg>
