<svg width="698" height="67" fill="none" xmlns="http://www.w3.org/2000/svg"><g filter="url(#a)"><mask id="b" style="mask-type:alpha" maskUnits="userSpaceOnUse" x="4" y="2" width="536" height="60"><path fill-rule="evenodd" clip-rule="evenodd" d="M13.25 2.001c-1.11.008-8.802.246-9.25 5.174l.243 48.653s.721 5.173 10.345 5.173h525.171L494.168 31.5 540 2.001H13.25Z" fill="#fff"/></mask><g mask="url(#b)"><path fill-rule="evenodd" clip-rule="evenodd" d="M13.25 2.001c-1.11.008-8.802.246-9.25 5.174l.243 48.653s.721 5.173 10.345 5.173h525.171L494.168 31.5 540 2.001H13.25Z" fill="#6E61F5"/></g><path d="m21.722 20.428 7.232-2.324V46h3.186V14.487h-3.186l-7.232 3.66v2.281Zm16.889 18.598c0 5.166 3.487 6.974 7.405 6.974h7.06c4.262 0 7.19-1.85 7.19-6.974V21.461c0-3.702-1.938-6.974-7.19-6.974h-7.06c-4.09 0-7.405 2.325-7.405 6.975v17.564Zm3.186 0V21.461c0-2.066 1.205-3.788 4.219-3.788h7.06c3.186 0 4.004 1.808 4.004 3.789v17.564c0 2.325-1.249 3.788-4.004 3.788h-7.06c-2.067 0-4.22-.904-4.22-3.788Zm24.477 0c0 5.166 3.487 6.974 7.405 6.974h7.06c4.262 0 7.19-1.85 7.19-6.974V21.461c0-3.702-1.938-6.974-7.19-6.974h-7.06c-4.09 0-7.405 2.325-7.405 6.975v17.564Zm3.186 0V21.461c0-2.066 1.205-3.788 4.219-3.788h7.06c3.186 0 4.004 1.808 4.004 3.789v17.564c0 2.325-1.249 3.788-4.004 3.788h-7.06c-2.067 0-4.22-.904-4.22-3.788Zm23.272-13.432c0 3.66 1.248 5.382 5.467 5.382h4.348c4.349 0 5.554-1.722 5.554-5.382V19.87c0-3.66-1.249-5.382-5.467-5.382h-4.349c-4.348 0-5.553 1.722-5.553 5.382v5.725Zm2.798 0V19.87c0-1.938.258-2.583 2.755-2.583h4.349c2.023 0 2.669.473 2.669 2.583v5.725c0 1.938-.259 2.583-2.756 2.583h-4.348c-2.023 0-2.669-.473-2.669-2.583ZM100.696 46h3.057l18.856-31.513h-3.057L100.696 46Zm14.164-5.467c0 3.66 1.248 5.381 5.467 5.381h4.348c4.348 0 5.554-1.722 5.554-5.381v-5.726c0-3.66-1.249-5.381-5.468-5.381h-4.348c-4.348 0-5.553 1.722-5.553 5.381v5.726Zm2.798 0v-5.726c0-1.937.258-2.583 2.755-2.583h4.348c2.024 0 2.67.474 2.67 2.583v5.726c0 1.937-.259 2.583-2.756 2.583h-4.348c-2.023 0-2.669-.474-2.669-2.583ZM149.44 26h4.896c3.474 0 4.68-3.546 4.68-6.534 0-2.7-.63-6.642-4.68-6.642h-4.896V26Zm1.332-1.386V14.156h3.564c2.088 0 3.348 1.44 3.348 5.292 0 2.772-.972 5.166-3.348 5.166h-3.564Zm10.241-.828c0 2.034 1.26 2.34 2.448 2.268l5.508-.306v-1.026h-5.508c-.522 0-1.098.018-1.116-.936v-3.6l5.904-.18v-1.062l-5.904-.18v-3.6c0-.486 0-1.008.936-1.008h5.688v-1.044l-5.688-.288c-1.206-.054-2.268.576-2.268 2.34v8.622Zm14.453-4.446c0 3.816.558 6.786 4.284 6.75 1.62 0 2.808-.594 3.492-.972l.288.882h1.008v-6.948a14.888 14.888 0 0 0-1.224-.054c-1.458 0-2.412.252-3.132.45v.9h3.024v3.6s-2.088.846-3.456.828c-2.214-.036-2.952-1.404-2.952-5.4 0-3.636.504-5.364 2.88-5.364 1.782 0 4.464.216 4.572.216v-1.062c-1.26-.234-3.636-.486-4.572-.486-3.582 0-4.212 3.06-4.212 6.66ZM186.437 26h1.638l1.188-3.672h5.256L195.653 26h1.584l-4.626-13.176h-1.332L186.437 26Zm3.312-5.004 2.178-6.138 2.124 6.138h-4.302ZM198.86 26h1.332v-5.634l3.6.252L206.564 26h1.44l-2.772-5.436c.504-.072 2.286-.36 2.286-3.78 0-2.988-1.332-3.96-3.042-3.96h-5.616V26Zm1.332-6.822v-5.004h4.284c.792 0 1.692.252 1.692 2.61 0 2.394-.864 2.394-1.692 2.394h-4.284ZM209.355 26h1.638l1.188-3.672h5.256L218.571 26h1.584l-4.626-13.176h-1.332L209.355 26Zm3.312-5.004 2.178-6.138 2.124 6.138h-4.302ZM222.138 26h1.35V15.308L230.526 26h1.332V12.824h-1.332v10.692l-7.02-10.692h-1.368V26Zm11.699-11.844h3.852V26h1.332V14.156h3.96v-1.332h-9.144v1.332Zm11.167-2.502h1.242l2.394-2.394h-1.71l-1.926 2.394ZM244.968 26h1.332V12.824h-1.332V26Zm3.315 0h1.638l1.188-3.672h5.256L257.499 26h1.584l-4.626-13.176h-1.332L248.283 26Zm3.312-5.004 2.178-6.138 2.124 6.138h-4.302ZM265.661 26h4.896c3.474 0 4.68-3.546 4.68-6.534 0-2.7-.63-6.642-4.68-6.642h-4.896V26Zm1.332-1.386V14.156h3.564c2.088 0 3.348 1.44 3.348 5.292 0 2.772-.972 5.166-3.348 5.166h-3.564Zm10.241-.828c0 2.034 1.26 2.34 2.448 2.268l5.508-.306v-1.026h-5.508c-.522 0-1.098.018-1.116-.936v-3.6l5.904-.18v-1.062l-5.904-.18v-3.6c0-.486 0-1.008.936-1.008h5.688v-1.044l-5.688-.288c-1.206-.054-2.268.576-2.268 2.34v8.622ZM291.506 26h1.638l1.188-3.672h5.256L300.722 26h1.584l-4.626-13.176h-1.332L291.506 26Zm3.312-5.004 2.178-6.138 2.124 6.138h-4.302ZM303.93 26h1.332v-5.724c.09.054 3.366.36 4.086.36 1.332 0 3.15-.234 3.15-3.996 0-3.222-1.728-3.816-3.15-3.816h-5.418V26Zm1.332-6.696v-5.13h4.086c.63 0 1.764.108 1.8 2.466 0 2.394-.864 2.664-1.8 2.664h-4.086ZM314.483 26h1.332v-5.634l3.6.252L322.187 26h1.44l-2.772-5.436c.504-.072 2.286-.36 2.286-3.78 0-2.988-1.332-3.96-3.042-3.96h-5.616V26Zm1.332-6.822v-5.004h4.284c.792 0 1.692.252 1.692 2.61 0 2.394-.864 2.394-1.692 2.394h-4.284Zm9.172.324c0 5.994 1.872 6.57 5.112 6.57s5.076-.756 5.076-6.57c0-6.174-1.962-6.768-5.076-6.768-3.024 0-5.112.594-5.112 6.768Zm1.332 0c0-5.382 1.386-5.436 3.78-5.436 2.448 0 3.744.054 3.744 5.436 0 4.482-.936 5.238-3.744 5.238-2.844 0-3.78-.612-3.78-5.238ZM337.515 26h5.076c2.772 0 3.492-1.836 3.492-3.672 0-2.052-.936-2.988-1.728-3.168 1.278-.396 1.656-1.584 1.656-2.916 0-1.476-.792-3.42-3.42-3.42h-5.076V26Zm1.35-1.332v-4.896h3.726c1.512 0 2.16 1.188 2.16 2.52 0 2.142-1.296 2.376-2.16 2.376h-3.726Zm0-6.228v-4.284h3.726c.936 0 2.088.342 2.088 2.088 0 1.476-.738 2.196-2.088 2.196h-3.726Zm8.293 7.56h1.638l1.188-3.672h5.256L356.374 26h1.584l-4.626-13.176H352L347.158 26Zm3.312-5.004 2.178-6.138 2.124 6.138h-4.302Zm8.3-1.62c0 3.87 1.062 6.732 4.392 6.732.936 0 3.132-.162 4.392-.396V24.65s-2.502.126-4.392.126c-2.394 0-3.06-2.412-3.06-5.364 0-4.374.81-5.4 3.06-5.4 1.656 0 4.374.18 4.392.18V13.13c-1.26-.234-3.456-.45-4.392-.45-3.582 0-4.392 2.484-4.392 6.696ZM369.721 26h1.332V12.824h-1.332V26Zm8.157-14.346h1.242l2.394-2.394h-1.71l-1.926 2.394Zm-4.482 7.848c0 5.994 1.872 6.57 5.112 6.57s5.076-.756 5.076-6.57c0-6.174-1.962-6.768-5.076-6.768-3.024 0-5.112.594-5.112 6.768Zm1.332 0c0-5.382 1.386-5.436 3.78-5.436 2.448 0 3.744.054 3.744 5.436 0 4.482-.936 5.238-3.744 5.238-2.844 0-3.78-.612-3.78-5.238ZM385.925 26h1.35V15.308L394.313 26h1.332V12.824h-1.332v10.692l-7.02-10.692h-1.368V26Zm16.923-2.214c0 2.034 1.26 2.34 2.448 2.268l5.508-.306v-1.026h-5.508c-.522 0-1.098.018-1.116-.936v-3.6l5.904-.18v-1.062l-5.904-.18v-3.6c0-.486 0-1.008.936-1.008h5.688v-1.044l-5.688-.288c-1.206-.054-2.268.576-2.268 2.34v8.622ZM413.156 26h1.35V15.308L421.544 26h1.332V12.824h-1.332v10.692l-7.02-10.692h-1.368V26ZM149.44 47.786c0 2.034 1.26 2.34 2.448 2.268l5.508-.306v-1.026h-5.508c-.522 0-1.098.018-1.116-.936v-3.6l5.904-.18v-1.062l-5.904-.18v-3.6c0-.486 0-1.008.936-1.008h5.688v-1.044l-5.688-.288c-1.206-.054-2.268.576-2.268 2.34v8.622Zm10.308-.054c0 2.034 1.26 2.268 2.448 2.268h5.508v-1.332h-5.508c-.522 0-1.116.018-1.116-.936V36.824h-1.332v10.908Zm14.079-9.576h3.852V50h1.332V38.156h3.96v-1.332h-9.144v1.332ZM184.598 50h1.332v-5.634l3.6.252L192.302 50h1.44l-2.772-5.436c.504-.072 2.286-.36 2.286-3.78 0-2.988-1.332-3.96-3.042-3.96h-5.616V50Zm1.332-6.822v-5.004h4.284c.792 0 1.692.252 1.692 2.61 0 2.394-.864 2.394-1.692 2.394h-4.284ZM195.722 50h1.332V36.824h-1.332V50Zm3.945 0h5.076c2.772 0 3.492-1.836 3.492-3.672 0-2.052-.936-2.988-1.728-3.168 1.278-.396 1.656-1.584 1.656-2.916 0-1.476-.792-3.42-3.42-3.42h-5.076V50Zm1.35-1.332v-4.896h3.726c1.512 0 2.16 1.188 2.16 2.52 0 2.142-1.296 2.376-2.16 2.376h-3.726Zm0-6.228v-4.284h3.726c.936 0 2.088.342 2.088 2.088 0 1.476-.738 2.196-2.088 2.196h-3.726Zm9.467 1.8c0 5.994 2.43 5.85 4.878 5.85 2.178 0 4.788-.036 4.788-5.85v-7.416h-1.35v7.416c0 4.482-1.656 4.518-3.438 4.518-2.106 0-3.546.108-3.546-4.518v-7.416h-1.332v7.416ZM222.76 50h1.35V39.308L231.148 50h1.332V36.824h-1.332v10.692l-7.02-10.692h-1.368V50Zm11.7 0h1.638l1.188-3.672h5.256L243.676 50h1.584l-4.626-13.176h-1.332L234.46 50Zm3.312-5.004 2.178-6.138 2.124 6.138h-4.302Zm9.471 2.736c0 2.034 1.26 2.268 2.448 2.268h5.508v-1.332h-5.508c-.522 0-1.116.018-1.116-.936V36.824h-1.332v10.908ZM269.9 45.356c0 3.42.99 4.734 4.212 4.734 3.222 0 4.212-1.188 4.212-4.734 0-3.798-.99-5.004-4.212-5.004-3.132 0-4.212 1.098-4.212 5.004Zm1.332 0c0-3.438.864-3.672 2.88-3.672 2.106 0 2.88.252 2.88 3.672 0 3.15-.936 3.402-2.88 3.402-1.854 0-2.88-.216-2.88-3.402ZM285 46.598c0 2.538.99 3.402 2.376 3.402h1.584v-.954c-.126 0-1.602-.378-1.602-.378-.612-.144-1.026-.504-1.026-2.07V35.906H285v10.692Zm4.415-1.422c0 3.744.72 4.914 3.15 4.914 1.494 0 3.042-.09 4.5-.504v-1.008c-1.35.198-2.844.18-4.5.18-1.404 0-1.818-.558-1.818-2.808h4.032c1.728 0 2.466-.81 2.466-2.196 0-3.168-1.404-3.384-3.654-3.384-2.952 0-4.176.54-4.176 4.806Zm1.332-.54c0-2.916.828-2.934 2.862-2.934 1.944 0 2.304.162 2.304 2.052 0 .594-.342.882-1.134.882h-4.032Zm12.814.63c0 2.196.54 4.842 3.15 4.842 1.224 0 3.06-.828 3.528-1.17l.36 1.062h.954V35.87h-1.314v5.148c-1.152-.468-2.718-.72-3.528-.72-2.718 0-3.15 2.52-3.15 4.968Zm1.332 0c0-2.934.666-3.636 1.818-3.636 1.386 0 2.286.144 3.528.468v5.85c-.972.396-2.106.828-3.528.828-1.17 0-1.818-1.17-1.818-3.51Zm8.73-.09c0 3.744.72 4.914 3.15 4.914 1.494 0 3.042-.09 4.5-.504v-1.008c-1.35.198-2.844.18-4.5.18-1.404 0-1.818-.558-1.818-2.808h4.032c1.728 0 2.466-.81 2.466-2.196 0-3.168-1.404-3.384-3.654-3.384-2.952 0-4.176.54-4.176 4.806Zm1.332-.54c0-2.916.828-2.934 2.862-2.934 1.944 0 2.304.162 2.304 2.052 0 .594-.342.882-1.134.882h-4.032Zm7.504-4.194L326.221 50h1.332l3.834-9.558h-1.458l-3.024 7.596-2.988-7.596h-1.458Zm9.933 4.914c0 3.42.99 4.734 4.212 4.734 3.222 0 4.212-1.188 4.212-4.734 0-3.798-.99-5.004-4.212-5.004-3.132 0-4.212 1.098-4.212 5.004Zm1.332 0c0-3.438.864-3.672 2.88-3.672 2.106 0 2.88.252 2.88 3.672 0 3.15-.936 3.402-2.88 3.402-1.854 0-2.88-.216-2.88-3.402Zm9.173 1.242c0 2.538.99 3.402 2.376 3.402h1.584v-.954c-.126 0-1.602-.378-1.602-.378-.612-.144-1.026-.504-1.026-2.07V35.906h-1.332v10.692Zm3.875-6.156L350.534 50h1.332l3.834-9.558h-1.458l-3.024 7.596-2.988-7.596h-1.458Zm9.934 4.734c0 3.744.72 4.914 3.15 4.914 1.494 0 3.042-.09 4.5-.504v-1.008c-1.35.198-2.844.18-4.5.18-1.404 0-1.818-.558-1.818-2.808h4.032c1.728 0 2.466-.81 2.466-2.196 0-3.168-1.404-3.384-3.654-3.384-2.952 0-4.176.54-4.176 4.806Zm1.332-.54c0-2.916.828-2.934 2.862-2.934 1.944 0 2.304.162 2.304 2.052 0 .594-.342.882-1.134.882h-4.032Zm8.4 5.364h1.332v-7.326c1.386-.666 2.016-1.008 3.402-1.008.936 0 1.638.684 1.638 1.746V50h1.332v-7.326c1.188-.774 2.106-1.008 3.528-1.008.936 0 1.62.684 1.62 1.746V50h1.332v-6.588c0-1.836-1.296-3.078-2.952-3.078a6.02 6.02 0 0 0-3.852 1.404c-.414-.882-1.476-1.404-2.646-1.404-1.422 0-2.304.63-3.402 1.26l-.396-1.152h-.936V50Zm15.91-4.644c0 3.42.99 4.734 4.212 4.734 3.222 0 4.212-1.188 4.212-4.734 0-3.798-.99-5.004-4.212-5.004-3.132 0-4.212 1.098-4.212 5.004Zm1.332 0c0-3.438.864-3.672 2.88-3.672 2.106 0 2.88.252 2.88 3.672 0 3.15-.936 3.402-2.88 3.402-1.854 0-2.88-.216-2.88-3.402Zm8.55-1.8c0 1.854.792 2.358 2.484 2.358h2.844c.792 0 1.008.36 1.008.99v.882c0 1.08-1.008.972-1.008.972h-4.932v.99c.684.072 4.05.342 4.932.342 1.152 0 2.34-.342 2.34-2.304v-.882c0-1.35-.774-2.322-2.34-2.322h-2.844c-.666 0-1.152-.036-1.152-1.026v-.828c0-.612 0-1.062 1.152-1.062h4.698V40.64c-.936-.09-3.762-.288-4.698-.288-1.854 0-2.484.9-2.484 2.376v.828Zm13.795 0c0 1.854.792 2.358 2.484 2.358h2.844c.792 0 1.008.36 1.008.99v.882c0 1.08-1.008.972-1.008.972h-4.932v.99c.684.072 4.05.342 4.932.342 1.152 0 2.34-.342 2.34-2.304v-.882c0-1.35-.774-2.322-2.34-2.322h-2.844c-.666 0-1.152-.036-1.152-1.026v-.828c0-.612 0-1.062 1.152-1.062h4.698V40.64c-.936-.09-3.762-.288-4.698-.288-1.854 0-2.484.9-2.484 2.376v.828Zm9.38 3.546c0 1.584 1.044 3.06 2.952 3.06 1.458 0 2.43-.648 3.528-1.278l.396 1.116h.936v-9.558h-1.332v7.362c-1.386.666-2.088 1.026-3.528 1.026-.918 0-1.62-.54-1.62-1.728v-6.66h-1.332v6.66Zm14.481-1.836c0 2.196.54 4.842 3.15 4.842 1.224 0 3.06-.828 3.528-1.17l.36 1.062h.954V35.87h-1.314v5.148c-1.152-.468-2.718-.72-3.528-.72-2.718 0-3.15 2.52-3.15 4.968Zm1.332 0c0-2.934.666-3.636 1.818-3.636 1.386 0 2.286.144 3.528.468v5.85c-.972.396-2.106.828-3.528.828-1.17 0-1.818-1.17-1.818-3.51Zm8.729-6.372c0 .252.18.414.432.414h.9c.252 0 .414-.144.414-.414v-.972c0-.252-.144-.45-.414-.45h-.9c-.288 0-.432.18-.432.45v.972Zm.18 11.106h1.332v-9.558h-1.332V50Zm3.646 0h1.332v-7.362c1.386-.666 2.088-1.026 3.528-1.026.918 0 1.62.54 1.62 1.728V50h1.332v-6.66c0-1.584-1.044-3.06-2.952-3.06-1.458 0-2.43.648-3.528 1.278l-.396-1.116h-.936V50Zm9.53-4.824c0 3.744.72 4.914 3.15 4.914 1.494 0 3.042-.09 4.5-.504v-1.008c-1.35.198-2.844.18-4.5.18-1.404 0-1.818-.558-1.818-2.808h4.032c1.728 0 2.466-.81 2.466-2.196 0-3.168-1.404-3.384-3.654-3.384-2.952 0-4.176.54-4.176 4.806Zm1.332-.54c0-2.916.828-2.934 2.862-2.934 1.944 0 2.304.162 2.304 2.052 0 .594-.342.882-1.134.882h-4.032ZM463.034 50h1.332v-7.272c1.386-.666 2.124-1.044 3.564-1.044.522 0 1.116.054 1.332.108v-1.314c-.216-.108-.81-.144-1.332-.144-1.476 0-2.466.684-3.564 1.314l-.396-1.206h-.936V50Zm7.228-4.644c0 3.42.99 4.734 4.212 4.734 3.222 0 4.212-1.188 4.212-4.734 0-3.798-.99-5.004-4.212-5.004-3.132 0-4.212 1.098-4.212 5.004Zm1.332 0c0-3.438.864-3.672 2.88-3.672 2.106 0 2.88.252 2.88 3.672 0 3.15-.936 3.402-2.88 3.402-1.854 0-2.88-.216-2.88-3.402Z" fill="#fff"/><path d="M137.506 9.064v45.025" stroke="#fff" stroke-width="2"/></g><g filter="url(#c)"><path fill-rule="evenodd" clip-rule="evenodd" d="M694 3v58H577l-37-29 37-29h117Z" fill="url(#d)"/><mask id="e" style="mask-type:alpha" maskUnits="userSpaceOnUse" x="540" y="3" width="154" height="59"><path fill-rule="evenodd" clip-rule="evenodd" d="M694 3v58H577l-37-29 37-29h117Z" fill="#fff"/></mask><path fill-rule="evenodd" clip-rule="evenodd" d="M595 45.25h2.999c.379 0 .763.039 1.151.117.389.079.737.212 1.045.402.308.189.559.445.753.768.195.323.292.729.292 1.218 0 .517-.161.966-.484 1.35-.322.382-.753.634-1.293.754v.027c.654.074 1.196.321 1.627.741.432.42.647.99.647 1.71a2.38 2.38 0 0 1-1.009 1.972 3.626 3.626 0 0 1-1.18.547c-.464.129-.985.194-1.563.194H595v-9.8Zm1.023 4.29h2.061c.247 0 .495-.027.746-.083.252-.055.481-.15.69-.283.208-.134.377-.312.504-.533.128-.222.192-.494.192-.817 0-.314-.064-.58-.192-.796a1.557 1.557 0 0 0-.518-.533 2.26 2.26 0 0 0-.768-.297 4.68 4.68 0 0 0-.938-.09h-1.777v3.432Zm0 4.651h1.905c.37 0 .722-.034 1.059-.104.336-.069.63-.18.881-.332.251-.152.453-.35.604-.595.152-.244.228-.537.228-.879 0-.646-.225-1.128-.676-1.446-.45-.319-1.087-.478-1.911-.478h-2.09v3.834Zm9.115-.027h5.387v.886h-6.41v-9.8h6.239v.885h-5.216v3.378h4.875v.872h-4.875v3.779Zm12.341-7.337a2.443 2.443 0 0 0-.839-.712c-.341-.18-.753-.27-1.236-.27-.247 0-.498.037-.754.11a2.2 2.2 0 0 0-.696.34 1.752 1.752 0 0 0-.505.574c-.128.23-.192.503-.192.817 0 .313.062.572.185.775.123.203.287.376.491.519.203.143.435.26.696.353.261.092.533.184.817.277.351.11.704.23 1.059.36.356.129.675.297.96.505.284.207.516.47.696.789.18.318.27.722.27 1.21 0 .49-.097.912-.291 1.267a2.71 2.71 0 0 1-.754.88c-.308.23-.658.4-1.051.511-.394.111-.789.167-1.187.167a4.68 4.68 0 0 1-.91-.09 4.195 4.195 0 0 1-.867-.27 3.555 3.555 0 0 1-.767-.457 3.358 3.358 0 0 1-.626-.637l.881-.636c.218.35.524.643.917.878.393.236.855.353 1.386.353.256 0 .516-.039.782-.117.265-.079.504-.199.718-.36.213-.162.388-.36.525-.595.138-.236.207-.51.207-.824 0-.341-.069-.625-.207-.851a1.795 1.795 0 0 0-.547-.568 3.372 3.372 0 0 0-.782-.38 34.644 34.644 0 0 0-.923-.305 12.293 12.293 0 0 1-.981-.346 3.34 3.34 0 0 1-.867-.505 2.363 2.363 0 0 1-.618-.768c-.157-.305-.235-.679-.235-1.122 0-.47.097-.876.291-1.218.195-.341.448-.623.761-.844a3.221 3.221 0 0 1 1.037-.484 4.332 4.332 0 0 1 1.123-.153c.683 0 1.265.118 1.749.353.483.236.848.515 1.094.838l-.81.636Zm6.186 8.223h-1.023v-8.915h-3.369v-.886h7.761v.886h-3.369v8.915Zm8.237-9.8h2.843c.512 0 .976.053 1.393.159.417.106.775.267 1.073.484.299.217.528.49.689.817.161.327.242.713.242 1.155 0 .444-.083.829-.249 1.156a2.26 2.26 0 0 1-.696.817c-.299.217-.659.38-1.08.491-.422.111-.889.166-1.4.166h-1.791v4.555h-1.024v-9.8Zm1.024 4.401h1.734c.805 0 1.416-.152 1.833-.457.417-.304.626-.747.626-1.329 0-.608-.216-1.054-.647-1.335-.431-.282-1.035-.422-1.812-.422h-1.734v3.543Zm8.318 5.398h-1.023v-9.8h2.956c.493 0 .95.046 1.372.139.422.092.786.242 1.094.45.308.207.548.477.718.81.171.332.256.738.256 1.217a2.366 2.366 0 0 1-.739 1.752 2.61 2.61 0 0 1-.81.519c-.313.129-.654.212-1.024.249l2.942 4.665h-1.25l-2.786-4.582h-1.706v4.581Zm0-5.44h1.777c.824 0 1.459-.145 1.905-.435.445-.291.668-.727.668-1.309 0-.323-.062-.595-.185-.816a1.487 1.487 0 0 0-.512-.54 2.366 2.366 0 0 0-.796-.304 5.136 5.136 0 0 0-1.037-.097h-1.82v3.502Zm8.589 5.44h-1.023v-9.8h1.023v9.8Zm11.218-1.578c-.171.25-.377.485-.618.706a3.925 3.925 0 0 1-.839.582 4.778 4.778 0 0 1-1.052.394 5.127 5.127 0 0 1-1.258.146c-.758 0-1.459-.13-2.103-.388a4.986 4.986 0 0 1-1.663-1.073 4.872 4.872 0 0 1-1.087-1.626 5.318 5.318 0 0 1-.391-2.063c0-.747.132-1.434.398-2.062a4.907 4.907 0 0 1 1.101-1.626 5.09 5.09 0 0 1 1.663-1.073 5.51 5.51 0 0 1 2.082-.388 5.341 5.341 0 0 1 2.09.422c.312.134.597.296.853.485.255.19.469.404.639.644l-.853.609a2.495 2.495 0 0 0-.419-.471 2.843 2.843 0 0 0-.618-.415 3.922 3.922 0 0 0-.775-.291 3.52 3.52 0 0 0-.902-.11c-.654 0-1.239.115-1.756.345a3.944 3.944 0 0 0-2.139 2.298 4.717 4.717 0 0 0-.284 1.633c0 .573.097 1.117.291 1.634.195.517.472.971.832 1.363s.798.704 1.315.934c.516.231 1.096.347 1.741.347.578 0 1.127-.116 1.648-.346.522-.231.957-.6 1.308-1.108l.796.498Zm2.861.693h5.386v.886h-6.41v-9.8h6.24v.885h-5.216v3.378h4.875v.872h-4.875v3.779ZM595 21.181v-2.436c.076-5.205 3.108-6.497 7.164-6.57V9h2.198v3.285c2.388.185 5.723.628 7.239.775v2.141c-1.895 0-9.096-.332-9.096-.332-2.654-.11-4.7.37-4.7 3.876v2.436c0 2.953 2.046 3.617 3.942 3.617h4.927c5.23 0 5.951 3.323 5.951 6.35v2.51c0 5.093-4.208 6.274-8.263 6.053v3.026h-2.198v-3.21c-2.388-.26-5.307-.628-6.292-.739v-2.03c1.516 0 5.533.221 9.058.221 1.554 0 4.89-.258 4.89-3.322v-2.51c0-2.104-.682-3.617-3.146-3.617h-4.927c-5.572 0-6.747-3.433-6.747-6.349Zm21.225-3.691v-1.956l6.368-3.138h2.805v27.02h-2.805v-23.92l-6.368 1.994Zm13.342-2.436v-1.698c3.335-1.144 7.618-1.107 12.053-1.034 4.169.074 6.481 2.695 6.481 6.09v2.548c0 2.694-.985 4.429-2.501 5.02 1.554.96 2.501 2.51 2.501 5.315v2.178c0 4.023-2.122 6.2-6.747 6.2-4.32 0-8.224.112-11.56-1.033l.038-1.734h11.295c2.009 0 4.094-.333 4.094-3.433v-2.178c0-2.88-1.82-3.839-3.867-3.913l-9.21-.258v-2.141l9.21-.37c2.616-.11 3.942-1.402 3.942-3.653v-2.547c0-2.4-1.971-3.36-3.942-3.36h-11.787Zm23.651 7.456v-4.836c0-4.134 2.539-5.5 6.102-5.5h5.648c4.131.038 7.125 2.585 7.125 14.212 0 9.781-3.373 13.066-6.519 13.066-3.828 0-8.149-.036-11.446-.7V36.72h10.953c3.449 0 4.132-6.386 4.207-9.486-3.221.369-7.163.775-9.968.775-5.155 0-6.102-2.621-6.102-5.5Zm2.767 0c0 2.252 1.592 2.768 3.335 2.768h9.968c0-3.47-.151-10.372-4.32-10.372h-5.648c-1.933 0-3.335.37-3.335 2.99v4.614Z" fill="#fff"/></g><defs><filter id="a" x="0" y=".001" width="544" height="67" filterUnits="userSpaceOnUse" color-interpolation-filters="sRGB"><feFlood flood-opacity="0" result="BackgroundImageFix"/><feColorMatrix in="SourceAlpha" values="0 0 0 0 0 0 0 0 0 0 0 0 0 0 0 0 0 0 127 0" result="hardAlpha"/><feOffset dy="2"/><feGaussianBlur stdDeviation="2"/><feColorMatrix values="0 0 0 0 0 0 0 0 0 0 0 0 0 0 0 0 0 0 0.5 0"/><feBlend in2="BackgroundImageFix" result="effect1_dropShadow"/><feBlend in="SourceGraphic" in2="effect1_dropShadow" result="shape"/></filter><filter id="c" x="536" y="1" width="162" height="66" filterUnits="userSpaceOnUse" color-interpolation-filters="sRGB"><feFlood flood-opacity="0" result="BackgroundImageFix"/><feColorMatrix in="SourceAlpha" values="0 0 0 0 0 0 0 0 0 0 0 0 0 0 0 0 0 0 127 0" result="hardAlpha"/><feOffset dy="2"/><feGaussianBlur stdDeviation="2"/><feColorMatrix values="0 0 0 0 0 0 0 0 0 0 0 0 0 0 0 0 0 0 0.5 0"/><feBlend in2="BackgroundImageFix" result="effect1_dropShadow"/><feBlend in="SourceGraphic" in2="effect1_dropShadow" result="shape"/></filter><linearGradient id="d" x1="771" y1="32" x2="732.739" y2="133.59" gradientUnits="userSpaceOnUse"><stop stop-color="#6E61F5"/><stop offset="1" stop-color="#843CF6"/></linearGradient></defs></svg>
