<svg width="16" height="16" viewBox="0 0 16 16" fill="none" xmlns="http://www.w3.org/2000/svg">
<path fill-rule="evenodd" clip-rule="evenodd" d="M6.29669 11.7018C6.45362 11.5446 6.70535 11.5446 6.86228 11.7018C7.01594 11.8589 7.01594 12.1142 6.86555 12.268L3.77605 15.3612C3.69759 15.4398 3.59624 15.4791 3.49162 15.4791C3.387 15.4791 3.28566 15.4398 3.20719 15.3612L0.117695 12.268C-0.0392317 12.1109 -0.0392317 11.8589 0.117695 11.7018C0.274622 11.5446 0.526359 11.5446 0.683286 11.7018L3.08623 14.1108V0.402606C3.08623 0.180027 3.26604 0 3.48835 0C3.71067 0 3.89048 0.180027 3.89048 0.402606V14.1108L6.29669 11.7018ZM12.5051 15.4823C12.2828 15.4823 12.103 15.3023 12.103 15.0797H12.1095V1.37148L9.70331 3.78057C9.54638 3.93768 9.29465 3.93768 9.13772 3.78057C8.98079 3.62345 8.98079 3.37142 9.13772 3.2143L12.2272 0.121109C12.3776 -0.029459 12.6424 -0.029459 12.7928 0.121109L15.8823 3.2143C16.0392 3.37142 16.0392 3.62345 15.8823 3.78057C15.8038 3.85913 15.7025 3.8984 15.5979 3.8984C15.4933 3.8984 15.3919 3.85913 15.3134 3.78057L12.9072 1.37148V15.0797C12.9072 15.3023 12.7274 15.4823 12.5051 15.4823Z" fill="#575C6B"/>
</svg>
