<svg width="85" height="78" viewBox="0 0 85 78" fill="none" xmlns="http://www.w3.org/2000/svg">
<path opacity="0.206306" d="M29.5 78C45.7924 78 59 64.7924 59 48.5C59 32.2076 45.7924 19 29.5 19C13.2076 19 0 32.2076 0 48.5C0 64.7924 13.2076 78 29.5 78Z" fill="#9B9B9B"/>
<path d="M39.4986 39C39.4579 39 39.4172 39 39.3764 38.98C39.01 38.8799 30.6022 36.5988 27.4264 28.2946C24.2913 20.0705 27.2839 9.38509 27.406 8.92486C27.4468 8.78479 27.5485 8.68474 27.6707 8.6047C27.7928 8.54467 27.9557 8.52466 28.0779 8.58469C28.3425 8.68474 34.7349 10.9459 39.1118 6.16347C39.295 5.96337 39.6207 5.94336 39.8243 6.12345C40.0279 6.30354 40.0483 6.6237 39.865 6.8238C35.7935 11.286 30.0118 10.1655 28.2407 9.66523C27.6911 11.8663 25.7163 20.9709 28.3629 27.9144C31.3555 35.7384 39.5393 37.9595 39.6207 37.9795C39.8854 38.0595 40.0483 38.3197 39.9872 38.5998C39.9261 38.8599 39.7225 39 39.4986 39Z" fill="#575C6B"/>
<path d="M39.5089 39C39.2853 39 39.0819 38.8598 39.0209 38.6196C38.9396 38.3593 39.1023 38.079 39.3869 37.9989C39.4683 37.9789 47.6421 35.7364 50.631 27.9277C53.2743 20.98 51.302 11.8699 50.753 9.66746C48.984 10.148 43.2298 11.2692 39.1429 6.8243C38.9599 6.62408 38.9803 6.30372 39.1836 6.12352C39.3869 5.94332 39.7123 5.96335 39.8952 6.16357C44.2871 10.9689 50.8547 8.60628 50.9157 8.58626C51.058 8.54621 51.2003 8.54621 51.3223 8.60628C51.4443 8.66635 51.546 8.78648 51.5866 8.92663C51.7086 9.38715 54.7179 20.079 51.5663 28.3081C48.3944 36.6174 39.9969 38.8999 39.6309 39C39.6106 39 39.5496 39 39.5089 39Z" fill="#575C6B"/>
<path fill-rule="evenodd" clip-rule="evenodd" d="M41.1782 60C35.0525 60 30.1397 59.8773 29.2352 59.5093C24.3626 57.9004 24.9992 53.7495 25.0585 53.3633C25.0609 53.3471 25.0624 53.3376 25.0624 53.3351C25.1035 53.0897 25.3296 52.9262 25.5558 52.9262H65.064C65.3518 52.9262 65.5779 53.1511 65.5779 53.4169C65.5779 53.4373 65.6807 56.2586 67.284 57.6693C67.8801 58.2009 68.5996 58.4667 69.4629 58.4871C69.6274 58.4871 69.7713 58.4871 69.9357 58.4667C74.2319 58.1395 76.0819 52.8035 75.568 42.1315C75.4035 38.799 74.828 34.6897 74.2113 30.335C73.0602 22.1571 71.7857 13.0798 73.0602 7.08951C73.0602 7.06907 73.0602 7.04862 73.0807 7.02818C73.348 5.80151 73.718 4.71794 74.2319 3.79794C76.4519 -0.270525 79.0008 -0.229636 80.3369 0.179255C83.2147 1.03793 85.2087 4.65661 84.9825 7.21218C84.962 7.47796 84.7359 7.6824 84.4687 7.6824H73.9852C72.8665 13.4073 74.0824 22.0948 75.1835 29.9617L75.2185 30.2123C75.8352 34.5874 76.4108 38.7377 76.5752 42.0906C76.8425 47.7128 76.4725 51.8426 75.4447 54.7049C74.3758 57.6898 72.5257 59.3049 69.9768 59.4889C69.7918 59.5093 69.6068 59.5093 69.4424 59.5093C65.8245 59.6524 51.7027 60 41.1782 60ZM26.0285 53.9689C25.9669 54.9502 26.1724 57.424 29.5847 58.5484C29.595 58.5484 29.6052 58.5536 29.6155 58.5587C29.6258 58.5638 29.6361 58.5689 29.6464 58.5689C31.0647 59.2231 51.5383 58.9573 66.7701 58.5893C66.7084 58.5484 66.6673 58.5075 66.6057 58.4462C65.1257 57.1173 64.7145 54.9298 64.6118 53.9484H26.0285V53.9689ZM83.9753 6.70107H74.2319C74.458 5.82195 74.7663 5.02461 75.1363 4.3295C76.5547 1.75349 78.2402 0.669925 80.0492 1.20148C82.2692 1.85571 83.8931 4.61572 83.9753 6.70107Z" fill="#575C6B"/>
<path d="M34.5056 9.98066C34.2436 9.98066 34.0219 9.76789 34.0017 9.51644C34.0017 9.32302 33.8405 4.97099 36.6219 2.18569C38.073 0.73501 40.0684 0 42.5273 0C47.8482 0 78 0 78 0V0.967118C78 0.967118 47.828 0.967118 42.5273 0.967118C40.3505 0.967118 38.6172 1.60542 37.3475 2.86267C34.8482 5.35783 34.9893 9.43907 34.9893 9.4971C35.0095 9.76789 34.7878 9.98066 34.5056 10C34.5258 9.98066 34.5056 9.98066 34.5056 9.98066Z" fill="#575C6B"/>
<path d="M36.5 54C36.22 54 36 53.7723 36 53.4825V38.5175C36 38.2277 36.22 38 36.5 38C36.78 38 37 38.2277 37 38.5175V53.5032C37 53.7723 36.76 54 36.5 54Z" fill="#575C6B"/>
<path d="M69.4842 11H55.5158C55.227 11 55 10.78 55 10.5C55 10.22 55.227 10 55.5158 10H69.4842C69.773 10 70 10.22 70 10.5C70 10.78 69.773 11 69.4842 11Z" fill="#575C6B"/>
<path d="M68.5087 18H60.4913C60.2162 18 60 17.78 60 17.5C60 17.22 60.2162 17 60.4913 17H68.5087C68.7838 17 69 17.22 69 17.5C69 17.78 68.7838 18 68.5087 18Z" fill="#575C6B"/>
<path d="M68.489 25H56.511C56.2248 25 56 24.78 56 24.5C56 24.22 56.2248 24 56.511 24H68.489C68.7752 24 69 24.22 69 24.5C69 24.78 68.7752 25 68.489 25Z" fill="#575C6B"/>
<path d="M69.4842 31H55.5158C55.227 31 55 30.78 55 30.5C55 30.22 55.227 30 55.5158 30H69.4842C69.773 30 70 30.22 70 30.5C70 30.78 69.773 31 69.4842 31Z" fill="#575C6B"/>
<path d="M69.4665 38H51.513C51.2257 38 51 37.78 51 37.5C51 37.22 51.2257 37 51.513 37H69.487C69.7743 37 70 37.22 70 37.5C70 37.78 69.7538 38 69.4665 38Z" fill="#575C6B"/>
<path d="M70.4735 46H42.5265C42.2317 46 42 45.78 42 45.5C42 45.22 42.2317 45 42.5265 45H70.4735C70.7683 45 71 45.22 71 45.5C71 45.78 70.7683 46 70.4735 46Z" fill="#575C6B"/>
<path fill-rule="evenodd" clip-rule="evenodd" d="M39.2493 26.9391C39.3295 26.9797 39.4298 27 39.51 27C39.6103 27 39.6905 26.9797 39.7507 26.9391L42.7393 25.1929C42.8997 25.0914 43 24.9289 43 24.7462V21.2538C43 21.0711 42.8997 20.8883 42.7393 20.8071L39.7507 19.0609C39.5903 18.9797 39.4097 18.9797 39.2493 19.0609L36.2607 20.8071C36.1003 20.9086 36 21.0711 36 21.2538V24.7462C36 24.9289 36.1003 25.1117 36.2607 25.1929L39.2493 26.9391ZM39.51 25.9239L37.0229 24.4619V21.5584L39.51 20.0964L41.9971 21.5584V24.4619L39.51 25.9239Z" fill="#575C6B"/>
<path d="M39.5 20C39.22 20 39 19.7898 39 19.5223V14.4777C39 14.2102 39.22 14 39.5 14C39.78 14 40 14.2102 40 14.4777V19.5223C40 19.7898 39.78 20 39.5 20Z" fill="#575C6B"/>
<path d="M42.5269 23C42.3399 23 42.1528 22.876 42.0489 22.6529C41.9242 22.3307 42.0489 21.9836 42.2983 21.8349L47.2653 19.0584C47.5354 18.9096 47.8264 19.0584 47.9511 19.3558C48.0758 19.6781 47.9511 20.0252 47.7017 20.1739L42.7347 22.9504C42.6932 22.9752 42.61 23 42.5269 23Z" fill="#575C6B"/>
<path d="M47.4245 29C47.3117 29 47.1989 28.9802 47.1087 28.9008L42.2373 25.9035C41.9892 25.7447 41.9215 25.4272 42.1019 25.2088C42.2824 24.9905 42.6432 24.9309 42.8913 25.0897L47.7627 28.0869C48.0108 28.2457 48.0785 28.5633 47.8981 28.7817C47.7853 28.9206 47.6049 29 47.4245 29Z" fill="#575C6B"/>
<path d="M39.5 32C39.22 32 39 31.7898 39 31.5223V26.4777C39 26.2102 39.22 26 39.5 26C39.78 26 40 26.2102 40 26.4777V31.5223C40 31.7898 39.78 32 39.5 32Z" fill="#575C6B"/>
<path d="M31.566 29C31.3882 29 31.2104 28.919 31.0992 28.7772C30.9214 28.5544 30.9881 28.2302 31.2548 28.0682L36.1228 25.0904C36.3673 24.9284 36.7229 24.9892 36.9008 25.2322C37.0786 25.4753 37.0119 25.7792 36.7452 25.9412L31.8772 28.919C31.7883 28.9797 31.6772 29 31.566 29Z" fill="#575C6B"/>
<path d="M36.4624 22C36.3782 22 36.2941 21.9764 36.2309 21.9292L31.285 19.1217C31.0325 18.9801 30.9272 18.6262 31.0535 18.3195C31.1798 18.0364 31.4955 17.9184 31.7691 18.06L36.715 20.8675C36.9675 21.0091 37.0728 21.363 36.9465 21.6697C36.8413 21.882 36.6518 22 36.4624 22Z" fill="#575C6B"/>
</svg>
