<svg width="74" height="72" viewBox="0 0 74 72" fill="none" xmlns="http://www.w3.org/2000/svg">
<path d="M12.2909 39C11.7024 39 11.114 38.8049 10.5045 38.3713C10.2733 38.2195 10 37.8943 10 37.2656C9.97903 34.1221 16.7675 25.3201 25.2374 19.098C25.4686 18.9246 25.8048 18.9896 25.973 19.2281C26.1411 19.4665 26.0781 19.8134 25.8469 19.9869C16.7885 26.6425 11.0299 35.076 11.0509 37.2656C11.0509 37.4174 11.0719 37.4824 11.0929 37.5041C12.8163 38.7398 14.7289 37.309 18.1336 32.2576C21.2231 27.6832 25.952 23.9976 26.1621 23.8459C26.3933 23.6724 26.7296 23.7158 26.8977 23.9543C27.0659 24.1927 27.0238 24.5396 26.7926 24.713C26.7506 24.7564 22.0008 28.442 18.9953 32.8863C16.8726 36.0299 14.6028 39 12.2909 39Z" fill="#575C6B"/>
<path fill-rule="evenodd" clip-rule="evenodd" d="M27 12.0655C27.0832 14.1062 28.2474 18 31.8857 18C35.5239 18 36.8337 13.7938 37 11.545C37 11.3784 36.9376 11.2118 36.8129 11.1077L32.2183 7.13057C32.0104 6.94317 31.6985 6.96399 31.5114 7.1514L27.1455 11.6699C27.0416 11.774 27 11.9198 27 12.0655ZM31.9064 16.9589C28.7256 16.9589 28.1642 13.2108 28.0603 12.2321L31.948 8.23418L35.9605 11.7116C35.815 12.7943 35.0457 16.9589 31.9064 16.9589Z" fill="#575C6B"/>
<path d="M40.3889 12C40.3226 12 40.2563 11.9785 40.1899 11.957L37.3157 10.9247C37.0283 10.8172 36.8735 10.5161 36.9841 10.2366C37.0946 9.95699 37.4041 9.80645 37.6916 9.91398L39.8583 10.6882C39.9246 9.13979 39.8141 5.33333 37.6916 3.01075C36.4977 1.72043 34.8394 1.07527 32.739 1.07527C30.6386 1.07527 29.0246 1.72043 27.9192 2.98925C25.8409 5.37634 26.0399 9.33333 26.1946 10.7957L27.8528 10.4516C28.1624 10.3871 28.4498 10.5806 28.5161 10.8602C28.5825 11.1398 28.3835 11.4409 28.096 11.5054L25.8409 11.9785C25.6861 12 25.5313 11.9785 25.4208 11.8925C25.2881 11.8065 25.1997 11.6774 25.1776 11.5269C25.1334 11.2903 24.2048 5.6129 27.079 2.30108C28.4056 0.774194 30.307 0 32.739 0C35.1711 0 37.1167 0.774194 38.5317 2.30108C41.5828 5.6129 40.9638 11.2688 40.9196 11.5054C40.8974 11.6774 40.809 11.8065 40.6542 11.8925C40.5879 11.9785 40.4995 12 40.3889 12Z" fill="#575C6B"/>
<path fill-rule="evenodd" clip-rule="evenodd" d="M28.0819 34H37.9187C38.1651 34 38.391 33.8208 38.4526 33.5295C38.4549 33.5129 38.4594 33.4827 38.4658 33.4397C38.6317 32.3266 40.0738 22.6504 37.3847 18.2498C37.282 18.0706 37.0972 17.981 36.9124 18.0034C36.707 18.0258 36.5428 18.1602 36.4811 18.3619C36.0294 19.6165 34.4276 22.8651 32.4972 22.8651C30.0903 22.8651 27.026 19.4747 26.8948 19.3296C26.8928 19.3274 26.8915 19.3259 26.8909 19.3252C26.7266 19.146 26.4596 19.1012 26.2543 19.2356C26.0489 19.37 25.9462 19.6389 26.0284 19.8853C26.0489 19.9526 27.9587 26.3154 27.5686 33.3951C27.5686 33.5519 27.6096 33.7087 27.7123 33.8208C27.815 33.9328 27.9382 34 28.0819 34ZM37.4874 32.8798H28.6159C28.8007 28.1077 28.0203 23.8061 27.4864 21.4312C28.7391 22.5514 30.69 23.9853 32.4766 23.9853C34.674 23.9853 36.2552 21.3416 36.974 19.8181C38.6169 23.8061 37.7544 30.9978 37.4874 32.8798Z" fill="#575C6B"/>
<path d="M11.5406 35C11.4281 35 11.2969 34.9626 11.2031 34.8692L9.14062 32.7944C8.95312 32.6075 8.95312 32.3084 9.14062 32.1402C9.32812 31.9533 9.62813 31.9533 9.79688 32.1402L11.8594 34.215C12.0469 34.4019 12.0469 34.7009 11.8594 34.8692C11.7844 34.9439 11.6719 35 11.5406 35Z" fill="#575C6B"/>
<path d="M18.5485 43C18.4225 43 18.2964 42.9283 18.2064 42.7849L15.1094 37.9816C14.9473 37.7187 14.9653 37.3603 15.1634 37.1452C15.3615 36.9301 15.6316 36.954 15.7936 37.2169L18.8906 42.0202C19.0527 42.2831 19.0347 42.6415 18.8366 42.8566C18.7646 42.9522 18.6565 43 18.5485 43Z" fill="#575C6B"/>
<path d="M15.5416 46C15.4097 46 15.2777 45.9581 15.1678 45.8534C14.9479 45.6648 14.9479 45.3297 15.1458 45.1202L23.0625 37.1598C23.2824 36.9504 23.6123 36.9504 23.8322 37.1389C24.0521 37.3274 24.0521 37.6626 23.8542 37.8721L15.9375 45.8324C15.8275 45.9372 15.6736 46 15.5416 46Z" fill="#575C6B"/>
<path d="M40.4868 64H37.3731C37.2451 64 37.1172 63.9556 37.0105 63.8667L16.1742 44.7441C15.961 44.5442 15.9396 44.1889 16.1316 43.9668C16.3235 43.7447 16.6647 43.7225 16.878 43.9224L37.565 62.9117H39.9323V59.869L19.9704 39.9468C19.7571 39.7247 19.7571 39.3916 19.9491 39.1695C20.1623 38.9474 20.4822 38.9474 20.6955 39.1472L40.828 59.2249C40.9347 59.3359 40.9987 59.4692 40.9987 59.6247V63.4448C41.02 63.7557 40.7854 64 40.4868 64Z" fill="#575C6B"/>
<path d="M25.4235 44C25.1864 44 25.0001 43.7735 25.0001 43.4851C24.9832 35.9682 27.1849 33.2498 27.2865 33.1468C27.4558 32.9409 27.7268 32.9615 27.8792 33.1468C28.0486 33.3528 28.0317 33.6823 27.8792 33.8676C27.8454 33.9088 25.83 36.4625 25.8469 43.4646C25.8638 43.7529 25.6606 44 25.4235 44C25.4235 44 25.4404 44 25.4235 44Z" fill="#575C6B"/>
<path d="M26.607 67C26.4046 67 26.249 66.8025 26.2179 66.5173L25.004 51.6199C24.9728 51.3128 25.1285 51.0495 25.3464 51.0056C25.5642 50.9617 25.751 51.1811 25.7821 51.4883L26.996 66.3857C27.0272 66.6928 26.8715 66.9561 26.6536 67C26.6381 67 26.6225 67 26.607 67Z" fill="#575C6B"/>
<path d="M39.2631 59C39.222 59 39.2014 59 39.1603 58.9783C38.8725 58.9131 38.708 58.6308 38.7491 58.3484C42.1825 40.5166 37.166 33.9573 37.1249 33.8921C36.9399 33.6532 36.9604 33.3274 37.1866 33.1319C37.4127 32.9365 37.7211 32.9582 37.9062 33.1971C38.1323 33.4795 43.3133 40.1474 39.7565 58.5656C39.7154 58.8262 39.5098 59 39.2631 59Z" fill="#575C6B"/>
<path d="M38.6031 66C38.5311 66 38.4831 66 38.411 65.9809C38.099 65.9043 37.9309 65.6365 38.027 65.3878C38.339 64.5651 38.8431 63.0727 38.7951 62.5179C38.7711 62.25 39.0112 62.0204 39.3472 62.0013C39.6833 61.9822 39.9714 62.1735 39.9954 62.4414C40.0674 63.3597 39.2752 65.426 39.1792 65.6747C39.0832 65.8661 38.8431 66 38.6031 66Z" fill="#575C6B"/>
<path fill-rule="evenodd" clip-rule="evenodd" d="M17.5325 71H47.436C47.6066 71 47.8199 70.9104 47.9052 70.7537C47.9905 70.597 48.0332 70.4179 47.9692 70.2388L46.3482 65.3806C46.2629 65.1567 46.0709 65 45.8363 65H18.7269C18.4923 65 18.279 65.1791 18.215 65.4254L17.0206 70.2836C16.9779 70.4627 16.9993 70.6418 17.1059 70.7761C17.2126 70.9104 17.3619 71 17.5325 71ZM46.6894 69.8806H18.215L19.1322 66.1418H45.4524L46.6894 69.8806Z" fill="#575C6B"/>
<path d="M57.5 31C57.22 31 57 30.7633 57 30.462V14.538C57 14.2367 57.22 14 57.5 14C57.78 14 58 14.2367 58 14.538V30.462C58 30.7418 57.78 31 57.5 31Z" fill="#575C6B"/>
<path d="M70.4706 27H64.9435C64.3294 27 63.7365 26.3445 62.5506 24.9632C61.1741 23.3712 59.2682 21.1706 57.6376 21.1706C56.0282 21.1706 53.7835 23.3244 52.1318 24.893C50.6918 26.2742 49.8871 27 49.2518 27H44.5294C44.2329 27 44 26.7425 44 26.4147C44 26.087 44.2329 25.8294 44.5294 25.8294H49.2518C49.5694 25.7826 50.6494 24.7525 51.4329 24.0033C53.2965 22.2241 55.6047 20 57.6165 20C59.6918 20 61.7671 22.4114 63.2918 24.1438C63.8635 24.8227 64.6682 25.7358 64.9435 25.806H70.4706C70.7671 25.806 71 26.0635 71 26.3913C71 26.7191 70.7671 27 70.4706 27Z" fill="#575C6B"/>
<path fill-rule="evenodd" clip-rule="evenodd" d="M41 33.6451C41.0875 35.843 42.3777 40 46.4891 40C50.6004 40 51.8907 35.843 52 33.6451C52 33.4778 51.9563 33.3106 51.8469 33.1911C51.7376 33.0717 51.6064 33 51.4533 33H41.5467C41.3936 33 41.2624 33.0717 41.1531 33.1911C41.0437 33.3106 41 33.4778 41 33.6451ZM46.4891 38.8055C43.2306 38.8055 42.3777 35.6041 42.159 34.2184H50.8191C50.6223 35.6041 49.7694 38.8055 46.4891 38.8055Z" fill="#575C6B"/>
<path d="M51.4861 34C51.3108 34 51.1356 33.9162 51.0261 33.7696L46.5142 27.466L42.0024 33.7696C41.8272 34 41.4986 34.0628 41.2358 33.9162C40.9949 33.7487 40.9292 33.4346 41.0825 33.1832L46.0324 26.2304C46.1419 26.0838 46.2952 26 46.4923 26C46.6895 26 46.8428 26.0838 46.9523 26.2304L51.9022 33.1832C52.0774 33.4136 52.0117 33.7487 51.7489 33.9162C51.7051 33.9791 51.5956 34 51.4861 34Z" fill="#575C6B"/>
<path fill-rule="evenodd" clip-rule="evenodd" d="M63 33.6451C63.0875 35.843 64.3777 40 68.4891 40C72.6004 40 73.8688 35.8669 74 33.6451C74 33.4778 73.9563 33.3106 73.8469 33.1911C73.7376 33.0717 73.6064 33 73.4533 33H63.5467C63.3936 33 63.2624 33.0717 63.1531 33.1911C63.0437 33.3106 63 33.4778 63 33.6451ZM68.4891 38.8055C65.2306 38.8055 64.3777 35.6041 64.159 34.2184H72.8191C72.6223 35.6041 71.7694 38.8055 68.4891 38.8055Z" fill="#575C6B"/>
<path d="M73.4861 34C73.3108 34 73.1356 33.9162 73.0261 33.7696L68.5142 27.466L64.0024 33.7696C63.8272 34 63.4986 34.0628 63.2358 33.9162C62.9949 33.7487 62.9292 33.4346 63.0825 33.1832L68.0324 26.2304C68.1419 26.0838 68.2952 26 68.4923 26C68.6895 26 68.8428 26.0838 68.9523 26.2304L73.9022 33.1832C74.0774 33.4136 74.0117 33.7487 73.7489 33.9162C73.7051 33.9791 73.5956 34 73.4861 34Z" fill="#575C6B"/>
<path d="M26.0731 20C25.989 20 25.905 19.9784 25.8209 19.9353C25.6528 19.8489 25.5478 19.6763 25.5478 19.5037C25.2746 15.5115 25.0014 11.5841 25.0014 11.5841C24.9804 11.282 25.1906 11.0231 25.4847 11.0015C25.7789 10.9799 26.031 11.1957 26.052 11.4978C26.052 11.4978 26.2832 14.8642 26.5353 18.5326L30.2124 16.2452C30.4646 16.0942 30.7797 16.1805 30.9268 16.4179C31.0739 16.6768 30.9899 17.0005 30.7587 17.1515L26.3462 19.9137C26.2622 19.9784 26.1781 20 26.0731 20Z" fill="#575C6B"/>
<path d="M38.6275 19C38.5765 19 38.5256 19 38.4746 18.978C38.1434 18.8902 37.9396 18.6047 38.016 18.2972C39.1624 14.6078 38.5765 11.6869 38.5765 11.643C38.5256 11.3355 38.7548 11.05 39.086 11.0061C39.4172 10.9622 39.7739 11.1598 39.8248 11.4453C39.8503 11.5771 40.4617 14.6517 39.2389 18.5608C39.1624 18.8243 38.9077 19 38.6275 19Z" fill="#575C6B"/>
<path d="M41.0253 23C40.1037 23 39.1602 22.913 38.2168 22.7608C37.9096 22.7173 37.7121 22.4347 37.7779 22.1303C37.8218 21.8258 38.107 21.6302 38.4142 21.6954C46.5107 23.1305 55.09 17.1945 57.8766 13.6937C58.9956 12.2804 59.1492 10.7583 58.5787 10.28C58.074 9.86686 56.4503 9.99732 53.554 13.1501C47.7175 19.4993 37.4049 19.0427 36.9661 19.0209C36.7905 19.0209 36.615 18.9122 36.5272 18.7383C36.3078 18.4121 34.7061 17.6076 33.3457 17.064C33.0604 16.9553 32.9288 16.6291 33.0385 16.3465C33.1482 16.0638 33.4773 15.9333 33.7626 16.042C34.6183 16.3899 36.5272 17.2162 37.2513 17.9337C38.7872 17.9555 47.6956 17.8903 52.7203 12.4109C56.6917 8.08389 58.6226 8.8884 59.2808 9.45373C60.4218 10.4105 60.1804 12.5631 58.7323 14.3678C56.3626 17.3032 49.034 23 41.0253 23Z" fill="#575C6B"/>
<path d="M67.4704 72H0.529595C0.233022 72 0 71.78 0 71.5C0 71.22 0.233022 71 0.529595 71H67.4704C67.767 71 68 71.22 68 71.5C68 71.78 67.767 72 67.4704 72Z" fill="#575C6B"/>
</svg>
