<svg width="82" height="69" viewBox="0 0 82 69" fill="none" xmlns="http://www.w3.org/2000/svg">
<path opacity="0.206306" d="M52.5 60C68.7924 60 82 46.7924 82 30.5C82 14.2076 68.7924 1 52.5 1C36.2076 1 23 14.2076 23 30.5C23 46.7924 36.2076 60 52.5 60Z" fill="#FF9503"/>
<path fill-rule="evenodd" clip-rule="evenodd" d="M0 43.5329C0 43.6118 0.568069 52 8.5 52C16.4319 52 17 43.6118 17 43.5329C17 43.3947 16.9579 43.2566 16.8527 43.1579C16.7475 43.0592 16.6213 43 16.474 43H0.52599C0.378713 43 0.252475 43.0592 0.147277 43.1579C0.0420792 43.2566 0 43.3947 0 43.5329ZM8.5 50.9934C2.56683 50.9934 1.34653 45.7039 1.1151 43.9868V43.9671H15.8849C15.7797 44.6776 15.5062 45.9803 14.8329 47.2632C13.5285 49.75 11.4035 50.9934 8.5 50.9934Z" fill="#575C6B"/>
<path d="M16.4644 44C16.2961 44 16.1278 43.9207 16.0227 43.7818L8.49265 33.3686L0.962615 43.7818C0.794347 44 0.478842 44.0595 0.226439 43.9207C-0.00493038 43.762 -0.0680312 43.4645 0.079204 43.2264L8.05094 32.2182C8.15611 32.0793 8.30334 32 8.49265 32C8.68195 32 8.82918 32.0793 8.93435 32.2182L16.9061 43.2264C17.0744 43.4446 17.0113 43.762 16.7589 43.9207C16.6747 43.9802 16.5695 44 16.4644 44Z" fill="#575C6B"/>
<path fill-rule="evenodd" clip-rule="evenodd" d="M27 4C27 6.21106 29.4633 8 32.5 8C35.5367 8 38 6.21106 38 4C38 1.78894 35.5367 0 32.5 0C29.4633 0 27 1.78894 27 4ZM28.0618 4C28.0618 2.35176 30.0579 1.00503 32.5 1.00503C34.9421 1.00503 36.9382 2.35176 36.9382 4C36.9382 5.64824 34.9421 6.99498 32.5 6.99498C30.0579 6.99498 28.0618 5.64824 28.0618 4Z" fill="#575C6B"/>
<path fill-rule="evenodd" clip-rule="evenodd" d="M27 19.5C27 21.4348 28.7885 23 31 23C33.1923 23 35 21.4348 35 19.5C35 17.5652 33.2115 16 31 16C28.7885 16 27 17.5652 27 19.5ZM27.9615 19.5C27.9615 18.1739 29.3269 17.087 31 17.087C32.6731 17.087 34.0385 18.1739 34.0385 19.5C34.0385 20.8261 32.6731 21.913 31 21.913C29.3269 21.913 27.9615 20.8261 27.9615 19.5Z" fill="#575C6B"/>
<path fill-rule="evenodd" clip-rule="evenodd" d="M7.51335 69H56.4867C56.7741 69 57 68.7569 57 68.4475V61.5525C57 61.2431 56.7741 61 56.4867 61H7.51335C7.22587 61 7 61.2431 7 61.5525V68.4475C7 68.7569 7.22587 69 7.51335 69ZM55.9733 67.895H8.02669V62.1271H55.9733V67.895Z" fill="#575C6B"/>
<path fill-rule="evenodd" clip-rule="evenodd" d="M17.508 62H45.5111C45.7753 62 46.0191 61.735 45.9988 61.4479V55.5521C45.9988 55.2429 45.7753 55 45.4908 55H17.508C17.2235 55 17 55.2429 17 55.5521V61.4479C17 61.7571 17.2235 62 17.508 62ZM44.9827 60.8959H18.0161V56.1041H44.9827V60.8959Z" fill="#575C6B"/>
<path d="M29.5 17C29.22 17 29 16.7835 29 16.5079V7.49213C29 7.21654 29.22 7 29.5 7C29.78 7 30 7.21654 30 7.49213V16.4882C30 16.7638 29.76 17 29.5 17Z" fill="#575C6B"/>
<path d="M29.5 57C29.22 57 29 56.7731 29 56.4842V21.5158C29 21.2269 29.22 21 29.5 21C29.78 21 30 21.2269 30 21.5158V56.4842C30 56.7731 29.76 57 29.5 57Z" fill="#575C6B"/>
<path d="M33.5 17C33.22 17 33 16.7835 33 16.5079V7.49213C33 7.21654 33.22 7 33.5 7C33.78 7 34 7.21654 34 7.49213V16.4882C34 16.7638 33.78 17 33.5 17Z" fill="#575C6B"/>
<path d="M33.5 57C33.22 57 33 56.7731 33 56.4842V21.5158C33 21.2269 33.22 21 33.5 21C33.78 21 34 21.2269 34 21.5158V56.4842C34 56.7731 33.78 57 33.5 57Z" fill="#575C6B"/>
<path fill-rule="evenodd" clip-rule="evenodd" d="M0.268706 16.9425C0.805731 18.2173 1.96571 19 3.29753 19C4.02788 19 4.77972 18.7764 5.51007 18.3067C6.73449 17.524 7.25004 16.2492 6.88486 14.8626C6.43376 13.23 4.95157 12 3.40493 12C2.48125 12 1.62201 12.4473 0.891656 13.2524C-0.0105471 14.2812 -0.246838 15.6901 0.268706 16.9425ZM1.70793 14.0128C2.22348 13.4313 2.80347 13.1406 3.42642 13.1406C4.60787 13.1406 5.57452 14.1693 5.85377 15.1757C5.98266 15.6901 6.0471 16.6518 4.95157 17.345C4.39306 17.7029 3.85604 17.8818 3.31901 17.8818C2.41681 17.8818 1.64349 17.345 1.27831 16.4952C0.934618 15.6454 1.08498 14.7284 1.70793 14.0128Z" fill="#575C6B"/>
<path d="M13.559 23C13.2354 23 12.9118 22.9796 12.568 22.9593C5.73174 22.4298 4.09347 17.868 4.0328 17.6847C3.93167 17.42 4.07325 17.1348 4.33618 17.033C4.59911 16.9312 4.88227 17.0738 4.98339 17.3385C5.04407 17.5014 6.50031 21.4523 12.6489 21.941C15.8243 22.1854 17.7255 21.106 19.7278 19.9452C21.7705 18.7641 23.8942 17.5421 27.4944 17.5421C27.7775 17.5421 28 17.7662 28 18.0513C28 18.3364 27.7775 18.5604 27.4944 18.5604C24.1774 18.5604 22.1751 19.7212 20.2334 20.8209C18.3727 21.9206 16.4715 23 13.559 23Z" fill="#575C6B"/>
<path d="M8.5 33C8.22 33 8 32.7724 8 32.4828V21.5172C8 21.2276 8.22 21 8.5 21C8.78 21 9 21.2276 9 21.5172V32.4828C9 32.7517 8.78 33 8.5 33Z" fill="#575C6B"/>
<path d="M30.4551 33C30.4334 33 30.4334 33 30.4116 33C26.2819 32.7517 22.652 30.7036 19.9133 27.0831C17.8702 24.3729 17.0442 21.7869 17.0225 21.6628C16.9356 21.3938 17.1094 21.1042 17.392 21.0214C17.6746 20.9387 17.9789 21.1042 18.0658 21.3731C18.0875 21.4766 21.2827 31.407 30.4986 31.9656C30.8029 31.9863 31.0202 32.2345 30.9985 32.5242C30.9768 32.7931 30.7377 33 30.4551 33Z" fill="#575C6B"/>
<path fill-rule="evenodd" clip-rule="evenodd" d="M46 43.5329C46 43.6118 46.5681 52 54.5 52C62.4319 52 63 43.6118 63 43.5329C63 43.3947 62.9579 43.2566 62.8527 43.1579C62.7475 43.0592 62.6213 43 62.474 43H46.526C46.3787 43 46.2525 43.0592 46.1473 43.1579C46.0421 43.2566 46 43.3947 46 43.5329ZM54.5 50.9934C48.5668 50.9934 47.3465 45.7039 47.1151 43.9868V43.9671H61.8849C61.7797 44.6776 61.5062 45.9803 60.8329 47.2632C59.5285 49.75 57.4035 50.9934 54.5 50.9934Z" fill="#575C6B"/>
<path d="M62.4644 44C62.2961 44 62.1278 43.9207 62.0227 43.7818L54.4926 33.3686L46.9626 43.7818C46.7943 44 46.4788 44.0595 46.2264 43.9207C45.9951 43.762 45.932 43.4645 46.0792 43.2264L54.0509 32.2182C54.1561 32.0793 54.3033 32 54.4926 32C54.6819 32 54.8292 32.0793 54.9344 32.2182L62.9061 43.2264C63.0744 43.4446 63.0113 43.762 62.7589 43.9207C62.6747 43.9802 62.5695 44 62.4644 44Z" fill="#575C6B"/>
<path fill-rule="evenodd" clip-rule="evenodd" d="M57.4899 18.3067C58.2203 18.7764 58.9506 19 59.681 19C61.0128 19 62.1728 18.2173 62.7313 16.9425C63.2468 15.6901 63.0105 14.2812 62.1083 13.2524C61.378 12.4249 60.5187 12 59.5951 12C58.0484 12 56.5448 13.23 56.1151 14.8626C55.75 16.2492 56.2655 17.5463 57.4899 18.3067ZM57.1462 15.1757C57.404 14.1693 58.3921 13.1406 59.5736 13.1406C60.1965 13.1406 60.7765 13.4313 61.3135 14.0128C61.9365 14.7284 62.1083 15.6454 61.7432 16.4952C61.378 17.345 60.6047 17.8818 59.7025 17.8818C59.1654 17.8818 58.6069 17.7029 58.0484 17.345C56.9529 16.6741 57.0173 15.6901 57.1462 15.1757Z" fill="#575C6B"/>
<path d="M49.4532 23C46.518 23 44.6152 21.8965 42.7731 20.8339C40.8299 19.7101 38.8258 18.5657 35.5061 18.5657C35.2227 18.5657 35 18.3409 35 18.0549C35 17.7688 35.2227 17.544 35.5061 17.544C39.1092 17.544 41.2347 18.7701 43.2792 19.9553C45.2832 21.12 47.186 22.2031 50.3641 21.9578C56.5381 21.4674 58.0158 17.3805 58.0158 17.3397C58.117 17.074 58.4004 16.931 58.6635 17.0331C58.9267 17.1353 59.0684 17.4214 58.9672 17.687C58.9064 17.8709 57.2668 22.4483 50.4248 22.9796C50.1009 23 49.7771 23 49.4532 23Z" fill="#575C6B"/>
<path d="M54.5 33C54.22 33 54 32.7724 54 32.4828V21.5172C54 21.2276 54.22 21 54.5 21C54.78 21 55 21.2276 55 21.5172V32.4828C55 32.7517 54.78 33 54.5 33Z" fill="#575C6B"/>
<path d="M33.5059 33C33.2435 33 33.0215 32.7931 33.0013 32.5242C32.9811 32.2345 33.2031 31.9863 33.4655 31.9656C42.0232 31.407 44.9699 21.4766 45.0103 21.3731C45.091 21.1042 45.3736 20.9387 45.636 21.0214C45.8984 21.1042 46.0598 21.3938 45.9791 21.6628C45.9387 21.7662 45.192 24.3729 43.2947 27.0831C40.7516 30.7036 37.381 32.7517 33.5462 33C33.526 33 33.526 33 33.5059 33Z" fill="#575C6B"/>
</svg>
