<svg width="75" height="70" viewBox="0 0 75 70" fill="none" xmlns="http://www.w3.org/2000/svg">
<path opacity="0.206306" d="M45.5 59C61.7924 59 75 45.7924 75 29.5C75 13.2076 61.7924 0 45.5 0C29.2076 0 16 13.2076 16 29.5C16 45.7924 29.2076 59 45.5 59Z" fill="#F6CC23"/>
<path d="M9.88828 61C9.64748 61 9.45828 60.7981 9.45828 60.5411C9.45828 59.238 10.4387 58.6139 11.1439 58.1551C11.5739 57.8797 11.9695 57.6228 11.9695 57.3658C11.9695 57.1639 11.9867 56.4297 11.9867 55.2918C12.0555 49.9873 12.2275 35.8728 11.9695 34.2576C11.8319 33.4133 10.9891 32.9177 10.2495 32.9177C10.2323 32.9177 10.2323 32.9177 10.2151 32.9177C9.85388 32.9177 9.02829 33.0646 8.87349 34.2392C8.78749 34.8633 8.89069 35.3772 9.18309 35.7259C9.66468 36.35 10.5419 36.4051 10.5591 36.4051C10.7999 36.4234 10.9719 36.6253 10.9719 36.8823C10.9547 37.1392 10.7655 37.3228 10.5247 37.3228C10.4731 37.3228 9.25189 37.2494 8.52949 36.3133C8.08229 35.7443 7.92749 35.0101 8.03069 34.1108C8.21989 32.5873 9.28629 32.0184 10.2151 32C10.2323 32 10.2495 32 10.2667 32C11.3675 32 12.6231 32.7709 12.8467 34.0924C13.0875 35.5975 13.0015 46.2063 12.8811 55.2918C12.8639 56.4114 12.8639 57.1456 12.8639 57.3475C12.8639 58.1184 12.2275 58.5222 11.6083 58.9259C10.8343 59.4032 10.3355 59.7886 10.3355 60.5228C10.3183 60.7797 10.1291 61 9.88828 61Z" fill="#575C6B"/>
<path d="M20.093 61C19.8529 61 19.6642 60.798 19.6642 60.5408C19.6642 59.8062 19.1668 59.4389 18.3949 58.943C17.7773 58.5573 17.1427 58.1533 17.1427 57.3635C17.1427 57.1615 17.1255 56.4269 17.1255 55.3065C17.0054 46.2153 16.9025 35.5997 17.1598 34.0937C17.3828 32.7714 18.6178 32 19.7328 32C19.75 32 19.7671 32 19.7843 32C20.7106 32.0184 21.7569 32.5877 21.9628 34.1121C22.0828 35.012 21.9113 35.7467 21.4653 36.316C20.7277 37.2527 19.527 37.3262 19.4755 37.3262C19.2354 37.3262 19.0467 37.1425 19.0295 36.8854C19.0124 36.6282 19.2011 36.4262 19.4412 36.4079C19.4584 36.4079 20.3332 36.3528 20.8135 35.7283C21.0879 35.361 21.1909 34.8651 21.1051 34.2407C20.9507 33.0652 20.1274 32.9183 19.7671 32.9183C19.0124 32.8999 18.1547 33.3958 18.0175 34.259C17.7602 35.8752 17.9317 49.9804 18.0003 55.3065C18.0175 56.4269 18.0175 57.1799 18.0175 57.3819C18.0175 57.639 18.412 57.8961 18.8408 58.1716C19.5613 58.6308 20.5219 59.2369 20.5219 60.5592C20.5219 60.7796 20.3332 61 20.093 61Z" fill="#575C6B"/>
<path d="M25.8948 61C25.6532 61 25.4633 60.7981 25.4633 60.5412C25.4633 59.238 26.4471 58.614 27.1547 58.1552C27.5862 57.8799 27.9832 57.6229 27.9832 57.366C27.9832 57.1641 28.0004 56.4299 28.0004 55.292C28.0695 49.9878 28.2421 35.8738 27.9832 34.2587C27.8451 33.3961 26.9821 32.9006 26.2227 32.9189C25.8603 32.9189 25.0318 33.0657 24.8765 34.2404C24.7902 34.8644 24.8938 35.3783 25.1872 35.727C25.6704 36.351 26.5507 36.4061 26.5679 36.4061C26.8095 36.4245 26.9821 36.6263 26.9821 36.8833C26.9649 37.1402 26.775 37.3238 26.5334 37.3238C26.4816 37.3238 25.2562 37.2504 24.5313 36.3143C24.0826 35.7454 23.9272 35.0112 24.0308 34.1119C24.2206 32.5885 25.2907 32.0196 26.2227 32.0012C27.3273 31.9645 28.639 32.7537 28.8461 34.0935C29.0878 35.5985 29.0015 46.207 28.8807 55.292C28.8634 56.4116 28.8634 57.1457 28.8634 57.3476C28.8634 58.1185 28.2248 58.5223 27.6035 58.926C26.8268 59.4032 26.3263 59.7887 26.3263 60.5228C26.3263 60.7798 26.1364 61 25.8948 61Z" fill="#575C6B"/>
<path d="M38.093 61C37.8529 61 37.6642 60.798 37.6642 60.5408C37.6642 59.8062 37.1668 59.4389 36.3949 58.943C35.7773 58.5573 35.1427 58.1533 35.1427 57.3635C35.1427 57.1615 35.1255 56.4269 35.1255 55.3065C35.0054 46.2153 34.9025 35.5997 35.1598 34.0937C35.3828 32.7714 36.6178 32 37.7328 32C37.75 32 37.7671 32 37.7843 32C38.7106 32.0184 39.7569 32.5877 39.9628 34.1121C40.0828 35.012 39.9113 35.7467 39.4653 36.316C38.7277 37.2527 37.527 37.3262 37.4755 37.3262C37.2354 37.3262 37.0467 37.1425 37.0295 36.8854C37.0124 36.6282 37.2011 36.4262 37.4412 36.4079C37.4584 36.4079 38.3332 36.3528 38.8135 35.7283C39.0879 35.361 39.1909 34.8651 39.1051 34.2407C38.9507 33.0652 38.1274 32.9183 37.7671 32.9183C37.0124 32.8999 36.1547 33.3958 36.0175 34.259C35.7602 35.8752 35.9317 49.9804 36.0003 55.3065C36.0175 56.4269 36.0175 57.1799 36.0175 57.3819C36.0175 57.639 36.412 57.8961 36.8408 58.1716C37.5613 58.6308 38.5219 59.2369 38.5219 60.5592C38.5219 60.7796 38.3332 61 38.093 61Z" fill="#575C6B"/>
<path d="M43.9055 61C43.6647 61 43.4755 60.7981 43.4755 60.5411C43.4755 59.238 44.4559 58.6139 45.1611 58.1551C45.5911 57.8797 45.9867 57.6228 45.9867 57.3658C45.9867 57.1639 46.0039 56.4297 46.0039 55.2918C46.0727 49.9873 46.2447 35.8728 45.9867 34.2576C45.8491 33.3949 44.9719 32.8994 44.2323 32.9177C43.8711 32.9177 43.0455 33.0646 42.8907 34.2392C42.8047 34.8633 42.9079 35.3589 43.1831 35.7259C43.6647 36.35 44.5591 36.4051 44.5591 36.4051C44.7999 36.4234 44.9719 36.6253 44.9719 36.8823C44.9547 37.1392 44.7655 37.3228 44.5247 37.3228C44.4731 37.3228 43.2519 37.2494 42.5295 36.3133C42.0823 35.7443 41.9275 35.0101 42.0307 34.1108C42.2199 32.5873 43.2863 32.0184 44.2151 32C44.2323 32 44.2495 32 44.2667 32C45.3675 32 46.6231 32.7709 46.8467 34.0924C47.0875 35.5975 47.0015 46.2063 46.8811 55.2918C46.8639 56.4114 46.8639 57.1456 46.8639 57.3475C46.8639 58.1184 46.2275 58.5222 45.6083 58.9259C44.8343 59.4032 44.3355 59.7886 44.3355 60.5228C44.3355 60.7797 44.1463 61 43.9055 61Z" fill="#575C6B"/>
<path d="M54.093 61C53.8529 61 53.6642 60.798 53.6642 60.5408C53.6642 59.8062 53.1668 59.4389 52.3949 58.943C51.7773 58.5573 51.1427 58.1533 51.1427 57.3635C51.1427 57.1615 51.1255 56.4269 51.1255 55.3065C51.0054 46.2153 50.9025 35.5997 51.1598 34.0937C51.3828 32.7714 52.6178 32 53.7328 32C53.75 32 53.7671 32 53.7843 32C54.7106 32.0184 55.7569 32.5877 55.9628 34.1121C56.0828 35.012 55.9113 35.7467 55.4653 36.316C54.7277 37.2527 53.527 37.3262 53.4755 37.3262C53.2354 37.3262 53.0467 37.1425 53.0295 36.8854C53.0124 36.6282 53.2011 36.4262 53.4412 36.4079C53.4584 36.4079 54.3332 36.3528 54.8135 35.7283C55.0879 35.361 55.1909 34.8651 55.1051 34.2407C54.9507 33.0652 54.1274 32.9183 53.7671 32.9183C53.0124 32.8999 52.1547 33.3958 52.0175 34.259C51.7602 35.8752 51.9317 49.9804 52.0003 55.3065C52.0175 56.4269 52.0175 57.1799 52.0175 57.3819C52.0175 57.639 52.412 57.8961 52.8408 58.1716C53.5613 58.6308 54.5219 59.2369 54.5219 60.5592C54.5219 60.7796 54.3332 61 54.093 61Z" fill="#575C6B"/>
<path d="M55.553 63H8.46566C8.20489 63 8 62.78 8 62.5C8 62.22 8.20489 62 8.46566 62H55.5343C55.7951 62 56 62.22 56 62.5C56 62.78 55.7951 63 55.553 63Z" fill="#575C6B"/>
<path d="M21.5 56C21.22 56 21 55.8007 21 55.5471V41.4529C21 41.1993 21.22 41 21.5 41C21.78 41 22 41.1993 22 41.4529V55.5471C22 55.8007 21.78 56 21.5 56Z" fill="#575C6B"/>
<path d="M43.5 56C43.22 56 43 55.8007 43 55.5471V41.4529C43 41.1993 43.22 41 43.5 41C43.78 41 44 41.1993 44 41.4529V55.5471C44 55.8007 43.78 56 43.5 56Z" fill="#575C6B"/>
<path d="M62.5162 69.9798C62.2558 69.9798 62.0511 69.7581 62.0511 69.4758V66.0081H0.930301V69.496C0.930301 69.7782 0.725635 70 0.465151 70C0.204666 70 0 69.7782 0 69.496V65.504C0 65.2218 0.204666 65 0.465151 65H62.5349C62.7953 65 63 65.2218 63 65.504V69.496C62.9814 69.7581 62.7767 69.9798 62.5162 69.9798Z" fill="#575C6B"/>
<path d="M63.5374 41H54.2123C53.9533 41 53.7498 40.8 53.7498 40.5455C53.7498 40.2909 53.9533 40.0909 54.2123 40.0909H63.0749V30.9091H1.92511V40.0909H10.5471C10.8062 40.0909 11.0097 40.2909 11.0097 40.5455C11.0097 40.8 10.8062 41 10.5471 41H1.46256C1.20352 41 1 40.8 1 40.5455V30.4545C1 30.2 1.20352 30 1.46256 30H63.5374C63.7965 30 64 30.2 64 30.4545V40.5455C64 40.8 63.7965 41 63.5374 41Z" fill="#575C6B"/>
<path d="M3.5 67C3.22 67 3 66.7975 3 66.5398V42.4602C3 42.2025 3.22 42 3.5 42C3.78 42 4 42.2025 4 42.4602V66.5214C4 66.7791 3.78 67 3.5 67Z" fill="#575C6B"/>
<path d="M60.5 66C60.22 66 60 65.8022 60 65.5504V41.4496C60 41.1978 60.22 41 60.5 41C60.78 41 61 41.1978 61 41.4496V65.5324C61 65.7842 60.78 66 60.5 66Z" fill="#575C6B"/>
<path fill-rule="evenodd" clip-rule="evenodd" d="M8.47605 27H55.5426C55.7287 27 55.9149 26.8916 55.9708 26.6927C56.0453 26.512 55.9708 26.3132 55.8218 26.1867L32.3072 8.09489C32.1396 7.96837 31.8976 7.96837 31.73 8.09489L8.17816 26.1867C8.02922 26.3132 7.95474 26.512 8.02922 26.6927C8.10369 26.8735 8.27125 27 8.47605 27ZM54.2021 26.0963H9.81655L32.0279 9.03472L54.2021 26.0963Z" fill="#575C6B"/>
<path d="M8.5 30C8.22 30 8 29.8128 8 29.5745V26.4255C8 26.1872 8.22 26 8.5 26C8.78 26 9 26.1872 9 26.4255V29.5745C9 29.8128 8.78 30 8.5 30Z" fill="#575C6B"/>
<path d="M55.5 30C55.22 30 55 29.8128 55 29.5745V26.4255C55 26.1872 55.22 26 55.5 26C55.78 26 56 26.1872 56 26.4255V29.5745C56 29.8128 55.76 30 55.5 30Z" fill="#575C6B"/>
<path fill-rule="evenodd" clip-rule="evenodd" d="M28 19C28 21.2037 29.7963 23 32 23C34.2037 23 36 21.2037 36 19C36 16.7963 34.2037 15 32 15C29.7963 15 28 16.7963 28 19ZM28.9259 18.9815C28.9259 17.2963 30.2963 15.9074 32 15.9074C33.6852 15.9074 35.0741 17.2963 35.0741 18.9815C35.0741 20.6667 33.7037 22.0556 32 22.0556C30.3148 22.0556 28.9259 20.6667 28.9259 18.9815Z" fill="#575C6B"/>
</svg>
