<svg width="57" height="76" viewBox="0 0 57 76" fill="none" xmlns="http://www.w3.org/2000/svg">
<path fill-rule="evenodd" clip-rule="evenodd" d="M4.64519 9H42.4673C42.7656 9 43 8.77294 43 8.48394V0.516055C43 0.227064 42.7656 0 42.4673 0H4.64519C2.08821 0 0 2.02294 0 4.5C0 6.97706 2.08821 9 4.64519 9ZM1.06541 4.5C1.06541 2.58028 2.66353 1.03211 4.64519 1.03211H41.9346V7.96789H4.64519C2.66353 7.96789 1.06541 6.41972 1.06541 4.5Z" fill="#575C6B"/>
<path d="M27.2958 58H5.34836C2.38652 58 0 55.5455 0 52.548V5.54303C0 5.23893 0.23439 5 0.532706 5H42.4673C42.7656 5 43 5.23893 43 5.54303C43 5.84713 42.7656 6.08607 42.4673 6.08607H1.06541V52.548C1.06541 54.959 2.98315 56.9139 5.34836 56.9139H27.2958C27.5942 56.9139 27.8285 57.1529 27.8285 57.457C27.8285 57.7611 27.5942 58 27.2958 58Z" fill="#575C6B"/>
<path fill-rule="evenodd" clip-rule="evenodd" d="M30.5461 76H56.4539C56.7597 76 57 75.7442 57 75.4186V64.5814C57 64.2558 56.7597 64 56.4539 64H30.5461C30.2403 64 30 64.2558 30 64.5814V75.4186C30 75.7442 30.2403 76 30.5461 76ZM55.9078 74.8372H31.0922V65.1628H55.9078V74.8372Z" fill="#575C6B"/>
<path d="M32.9087 66C32.7383 66 32.5466 65.9137 32.4614 65.741C32.2271 65.3525 26.5404 55.9856 24.9218 50.7626C23.367 45.7554 22.6641 41.482 23.154 39.8417C23.2818 39.3885 23.6864 39.1079 24.1976 39.1079H24.2189C25.8802 39.1295 29.224 42.0216 30.289 45.8417C30.9492 46.9209 31.8011 47.7194 32.3975 48.1942V21.3453C32.3975 19.4892 33.8884 18 35.6987 18C37.5091 18 39 19.5108 39 21.3453V38.482C39 38.7842 38.7657 39.0216 38.4675 39.0216C38.1694 39.0216 37.9351 38.7842 37.9351 38.482V21.3453C37.9351 20.0935 36.9341 19.0791 35.6987 19.0791C34.4634 19.0791 33.4624 20.0935 33.4624 21.3453V49.2302C33.4624 49.4245 33.3559 49.5971 33.2068 49.705C33.0577 49.813 32.8448 49.813 32.6744 49.705C32.5892 49.6619 30.6297 48.518 29.3305 46.3381C29.3092 46.295 29.2879 46.2518 29.2666 46.2086C28.4573 43.2302 26.2423 41.1367 24.9643 40.4676C24.5384 40.2302 24.2615 40.2086 24.1763 40.2086C23.8568 41.3957 24.2828 45.0863 25.9441 50.4604C27.5415 55.5755 33.3133 65.1151 33.3772 65.2014C33.5263 65.4604 33.4624 65.7842 33.2068 65.9353C33.1003 65.9784 33.0151 66 32.9087 66Z" fill="#575C6B"/>
<path d="M44.4697 38C44.1727 38 43.9394 37.7664 43.9394 37.4691V18.5042C43.9394 17.145 42.8364 16.0619 41.5 16.0619C40.1424 16.0619 39.0606 17.1662 39.0606 18.5042V27.169C39.0606 27.4663 38.8273 27.6999 38.5303 27.6999C38.2333 27.6999 38 27.4663 38 27.169V18.5042C38 16.5716 39.5697 15 41.5 15C43.4303 15 45 16.5716 45 18.5042V37.4691C45 37.7664 44.7667 38 44.4697 38Z" fill="#575C6B"/>
<path d="M50.4807 41C50.1899 41 49.9614 40.7622 49.9614 40.4596V21.6316C49.9614 20.2265 48.8605 19.0808 47.5104 19.0808C46.1602 19.0808 45.0386 20.2265 45.0386 21.6316V24.4633C45.0386 24.766 44.8101 25.0038 44.5193 25.0038C44.2285 25.0038 44 24.766 44 24.4633V21.6316C44 19.6212 45.5786 18 47.5104 18C49.4421 18 51 19.6429 51 21.6316V40.4596C51 40.7406 50.7715 41 50.4807 41Z" fill="#575C6B"/>
<path d="M54.1776 66C54.0901 66 54.0245 65.9785 53.937 65.957C53.6745 65.828 53.5433 65.5056 53.6745 65.2477C53.6964 65.2047 56.1242 60.0462 55.8618 52.7383C55.643 46.935 55.7743 34.4901 55.818 29.4175C55.818 28.7942 55.5774 28.2139 55.14 27.7625C54.7025 27.3111 54.0901 27.0747 53.4558 27.0747C52.1435 27.0747 51.0936 28.1064 51.0936 29.396V33.6733C51.0936 33.9742 50.853 34.2106 50.5468 34.2106C50.2406 34.2106 50 33.9742 50 33.6733V29.396C50 27.5261 51.5529 26 53.4558 26C54.3963 26 55.2712 26.3654 55.9274 27.0102C56.5835 27.655 56.9335 28.5148 56.9335 29.439C56.8679 34.5116 56.7585 46.935 56.9772 52.7168C57.2616 60.3041 54.79 65.5056 54.7025 65.7206C54.5932 65.8925 54.3963 66 54.1776 66Z" fill="#575C6B"/>
<path d="M42.5 16C42.22 16 42 15.7666 42 15.4695V8.5305C42 8.23342 42.22 8 42.5 8C42.78 8 43 8.23342 43 8.5305V15.4695C43 15.7666 42.78 16 42.5 16Z" fill="#575C6B"/>
<path d="M56.4497 73H50.5503C50.2421 73 50 72.7454 50 72.4213V68.5787C50 68.2546 50.2421 68 50.5503 68H56.4497C56.7579 68 57 68.2546 57 68.5787C57 68.9028 56.7579 69.1574 56.4497 69.1574H51.1006V71.8426H56.4497C56.7579 71.8426 57 72.0972 57 72.4213C57 72.7454 56.7579 73 56.4497 73Z" fill="#575C6B"/>
</svg>
