<svg width="59" height="81" viewBox="0 0 59 81" fill="none" xmlns="http://www.w3.org/2000/svg">
<path d="M58.4694 58C58.1723 58 57.9389 57.7805 57.9389 57.5012V50.9975H1.06115V57.5012C1.06115 57.7805 0.827698 58 0.530576 58C0.233453 58 0 57.7805 0 57.5012V50.4988C0 50.2195 0.233453 50 0.530576 50H58.4694C58.7665 50 59 50.2195 59 50.4988V57.5012C59 57.7805 58.7665 58 58.4694 58Z" fill="#575C6B"/>
<path d="M17.4444 35C17.3176 35 17.1907 35 17.085 34.9791C15.6688 34.854 14.4851 33.978 13.7453 32.5179C12.8153 30.6615 12.7519 28.9303 13.5762 27.7414C14.0413 27.053 14.7599 26.6359 15.6477 26.4899C15.0347 25.7181 14.316 24.4875 14.4006 23.1734C14.464 22.2557 14.8868 21.4422 15.6688 20.7539C15.1404 19.8987 14.0835 17.8963 14.5486 16.0816C14.7811 15.1847 15.3729 14.4547 16.2818 13.9333C16.0705 13.1198 15.7745 11.3468 16.6412 9.84505C17.2541 8.78129 18.311 8.07211 19.7906 7.71752C19.9175 6.48689 20.6784 2.96186 24.8213 2.79499C25.2652 2.00238 26.6603 0 29.4716 0C29.7675 0 30 0.22944 30 0.521454C30 0.813468 29.7675 1.04291 29.4716 1.04291C26.7448 1.04291 25.688 3.42074 25.6457 3.52503C25.5611 3.71275 25.3709 3.8379 25.1595 3.8379C20.8898 3.8379 20.8264 7.98868 20.8264 8.15554C20.8264 8.40584 20.6361 8.61442 20.4036 8.677C19.0297 8.92729 18.0785 9.51132 17.5923 10.3874C16.6834 11.9517 17.4444 14.0375 17.4444 14.0584C17.5289 14.3087 17.4232 14.6007 17.1696 14.705C16.3241 15.1013 15.7957 15.6436 15.6054 16.3737C15.1193 18.2092 16.8103 20.5661 16.8314 20.587C17.0005 20.8164 16.9582 21.1502 16.7046 21.317C15.9225 21.8802 15.5209 22.5268 15.4575 23.2777C15.3518 24.9672 17.1273 26.6359 17.1485 26.6359C17.3176 26.7819 17.3598 27.0322 17.2753 27.2408C17.1907 27.4493 16.9794 27.5745 16.7469 27.5536C15.7111 27.4493 14.9079 27.7622 14.464 28.4088C13.8722 29.264 13.9567 30.6615 14.7177 32.1216C15.2884 33.2688 16.155 33.9154 17.2119 34.0197C18.5013 34.1448 19.9597 33.3731 20.9955 32.0381C22.7287 29.7855 21.8621 24.9672 21.693 24.1955C19.9175 21.6925 21.6085 15.9565 21.6719 15.7271C21.7141 15.5602 21.841 15.435 22.0101 15.3725C24.0393 14.7259 24.6734 10.7837 24.7368 9.3236C24.7579 9.0733 24.9482 8.86472 25.2018 8.823C25.4555 8.80215 25.7091 8.96901 25.7725 9.21931C26.4701 11.8892 29.4504 12.1603 29.4927 12.1603C29.7886 12.1812 30 12.4315 29.9789 12.7235C29.9577 13.0155 29.7041 13.2241 29.4082 13.2032C28.4358 13.1198 26.6814 12.5983 25.5823 11.1591C25.2652 12.9321 24.4831 15.4768 22.6019 16.2694C22.1157 18.0006 21.3548 22.0679 22.5808 23.674C22.623 23.7366 22.6653 23.7992 22.6865 23.8826C22.7499 24.1329 23.997 29.8689 21.8198 32.6847C20.6573 34.1031 19.0086 35 17.4444 35Z" fill="#575C6B"/>
<path d="M6.54862 51C6.24139 51 6 50.768 6 50.4726C6 33.7238 13.944 31.1292 14.2951 31.0237C14.5804 30.9393 14.8876 31.087 14.9754 31.3612C15.0631 31.6354 14.9095 31.9307 14.6242 32.0151C14.6023 32.0151 12.737 32.648 10.8937 35.1793C9.16003 37.5629 7.09723 42.1404 7.09723 50.4726C7.09723 50.768 6.8339 51 6.54862 51Z" fill="#575C6B"/>
<path d="M15.5 51C15.22 51 15 50.7615 15 50.458V43.542C15 43.2385 15.22 43 15.5 43C15.78 43 16 43.2385 16 43.542V50.458C16 50.7615 15.78 51 15.5 51Z" fill="#575C6B"/>
<path d="M41.5345 35C39.9703 35 38.3427 34.1052 37.1802 32.607C35.003 29.7979 36.2501 24.0547 36.3135 23.8258C36.3347 23.7426 36.3558 23.6801 36.4192 23.6177C37.6663 22.0155 36.8843 17.9578 36.3981 16.2307C34.538 15.44 33.7559 12.9013 33.4177 11.1326C32.3186 12.5476 30.5642 13.0886 29.5918 13.1718C29.2959 13.1926 29.0423 12.9845 29.0211 12.6932C29 12.4019 29.2114 12.1522 29.5073 12.1314C29.6341 12.1106 32.5088 11.8401 33.2275 9.19738C33.2909 8.94768 33.5234 8.78121 33.7982 8.80202C34.0518 8.82283 34.2632 9.03092 34.2632 9.30143C34.3266 10.758 34.9607 14.6908 36.9899 15.3359C37.159 15.3983 37.2859 15.5232 37.3281 15.6897C37.3915 15.9394 39.0825 21.6617 37.307 24.1379C37.159 24.9078 36.2713 29.7146 38.0045 31.962C39.0403 33.2937 40.4987 34.0636 41.7881 33.9388C42.845 33.8347 43.7116 33.1897 44.2823 32.0452C45.0221 30.5678 45.1278 29.1736 44.536 28.3413C44.0921 27.6962 43.2677 27.4049 42.2531 27.4881C42.0206 27.5089 41.8093 27.3841 41.7247 27.176C41.6402 26.9679 41.6824 26.739 41.8515 26.5725C41.8727 26.5517 43.6482 24.9078 43.5425 23.2224C43.5003 22.4732 43.0986 21.849 42.2954 21.2663C42.0629 21.0999 41.9995 20.7669 42.1686 20.538C42.1897 20.5172 43.8807 18.1659 43.3946 16.3347C43.2043 15.6064 42.697 15.0654 41.8304 14.67C41.5768 14.566 41.4711 14.2747 41.5556 14.025C41.5556 14.0042 42.3166 11.9233 41.4077 10.3627C40.9004 9.4887 39.9492 8.90606 38.5964 8.65636C38.3427 8.61474 38.1736 8.38585 38.1736 8.13615C38.1736 7.96968 38.1102 3.82878 33.8405 3.82878C33.6291 3.82878 33.4389 3.70392 33.3543 3.51665C33.312 3.4126 32.2552 1.04043 29.5284 1.04043C29.2325 1.04043 29 0.811534 29 0.520214C29 0.228894 29.2325 0 29.5284 0C32.3397 0 33.7348 1.99762 34.1787 2.78835C38.3005 2.97562 39.0614 6.47146 39.2094 7.69917C40.689 8.05291 41.7459 8.7604 42.3588 9.82164C43.2255 11.3199 42.9295 13.0886 42.7182 13.9001C43.6271 14.4203 44.1978 15.1278 44.4514 16.0434C44.9165 17.8329 43.8596 19.8514 43.3312 20.7045C44.1344 21.3912 44.5571 22.2027 44.5994 23.1183C44.684 24.4293 43.9653 25.657 43.3523 26.4269C44.2401 26.5725 44.9587 27.0095 45.4238 27.6754C46.2481 28.8615 46.1847 30.5886 45.2547 32.4405C44.5149 33.8971 43.3312 34.7711 41.915 34.896C41.767 35 41.6402 35 41.5345 35Z" fill="#575C6B"/>
<path d="M53.4514 51C53.1442 51 52.9028 50.768 52.9028 50.4726C52.9028 42.1404 50.84 37.5629 49.1063 35.1793C47.263 32.648 45.3977 32.0151 45.3758 32.0151C45.0905 31.9307 44.9369 31.6354 45.0246 31.3612C45.1124 31.087 45.4196 30.9393 45.7049 31.0237C46.0341 31.1292 54 33.7449 54 50.4726C54 50.768 53.7586 51 53.4514 51Z" fill="#575C6B"/>
<path d="M43.5 51C43.22 51 43 50.7615 43 50.458V43.542C43 43.2385 43.22 43 43.5 43C43.78 43 44 43.2385 44 43.542V50.458C44 50.7615 43.78 51 43.5 51Z" fill="#575C6B"/>
<path d="M30.0045 30C26.3451 30 22.296 25.087 22.1227 24.8725C21.9278 24.6365 21.9712 24.3147 22.2093 24.1216C22.4475 23.9285 22.7723 23.9714 22.9672 24.2074C23.0105 24.2503 26.8432 28.9273 30.0045 28.9273C33.1659 28.9273 36.9986 24.2503 37.0419 24.2074C37.2367 23.9714 37.5615 23.95 37.7997 24.1216C38.0379 24.3147 38.0596 24.6365 37.8863 24.8725C37.7131 25.087 33.664 30 30.0045 30Z" fill="#575C6B"/>
<path d="M30.4964 35C25.9215 35 22.2573 32.0943 22.2139 32.0478C21.9754 31.8618 21.932 31.4899 22.1055 31.2342C22.279 30.9785 22.6259 30.932 22.8644 31.118C22.8861 31.1412 24.8157 32.6754 27.526 33.4425C31.1035 34.4421 34.3341 33.675 37.1094 31.1412C37.3479 30.932 37.6731 30.9553 37.8683 31.211C38.0634 31.4667 38.0417 31.8153 37.8032 32.0246C35.3749 34.2561 32.8164 35 30.4964 35Z" fill="#575C6B"/>
<path d="M28.5228 48C22.9493 48 19.5162 46.4388 19.3042 46.3347C19.0499 46.2098 18.944 45.9392 19.0287 45.6894L23.9665 32.346C24.0724 32.0754 24.3691 31.9297 24.6446 32.0338C24.9201 32.1378 25.0685 32.4293 24.9625 32.6999L20.1943 45.5853C21.9321 46.2306 28.6499 48.2914 37.7625 45.5437L33.4605 32.9497C33.3758 32.6791 33.5241 32.3876 33.7996 32.2836C34.0751 32.2003 34.3718 32.346 34.4777 32.6166L38.9705 45.7102C39.0128 45.8351 39.0128 45.9808 38.9493 46.1057C38.8857 46.2306 38.7797 46.3139 38.6314 46.3763C34.7956 47.5837 31.3837 48 28.5228 48Z" fill="#575C6B"/>
<path d="M28.3568 44C23.903 44 21.3991 42.267 21.2554 42.1665C21.0091 41.9907 20.927 41.614 21.0707 41.3126C21.2144 41.0112 21.5222 40.9107 21.7685 41.0865C21.8301 41.1367 27.1869 44.8037 36.3202 41.0363C36.587 40.9358 36.8743 41.1116 36.977 41.4381C37.059 41.7647 36.9154 42.1163 36.6486 42.2419C33.4057 43.5479 30.6144 44 28.3568 44Z" fill="#575C6B"/>
<path fill-rule="evenodd" clip-rule="evenodd" d="M37.3743 60.9361C37.4406 60.9787 37.5291 61 37.6176 61C37.684 61 37.7503 60.9787 37.7946 60.9574L46.6212 58.1224C46.9088 58.0158 47.0636 57.7174 46.9752 57.4403L45.9133 54.3494C45.8469 54.2216 45.7585 54.115 45.6257 54.051C45.493 53.9871 45.3381 53.9871 45.2054 54.0297L36.3788 56.8647C36.0912 56.9713 35.9364 57.2697 36.0248 57.5468L37.0867 60.6376C37.1531 60.7655 37.2415 60.8721 37.3743 60.9361ZM37.9937 59.785L37.2637 57.696L45.0506 55.2021L45.7806 57.291L37.9937 59.785Z" fill="#575C6B"/>
<path fill-rule="evenodd" clip-rule="evenodd" d="M40.9948 73.6376C41.0754 73.8508 41.2768 74 41.4782 74C41.5386 74 41.599 73.9787 41.6192 73.9574L49.6551 71.1224C49.917 71.0158 50.0579 70.7174 49.9774 70.4403L49.0106 67.3494C48.9502 67.2216 48.8697 67.115 48.7488 67.051C48.628 66.9871 48.487 66.9871 48.3662 67.0297L40.3302 69.8647C40.2093 69.9287 40.1086 70.0139 40.0482 70.1418C39.9878 70.2697 39.9878 70.4189 40.0281 70.5468L40.9948 73.6376ZM41.8206 72.785L41.1559 70.696L48.2453 68.2021L48.9099 70.291L41.8206 72.785Z" fill="#575C6B"/>
<path d="M42.4604 70C42.2457 70 42.0309 69.8479 41.945 69.6305L39.0241 60.7199C38.9382 60.4373 39.0885 60.1331 39.3678 60.0244C39.647 59.9375 39.9476 60.0896 40.055 60.3721L42.9759 69.2828C43.0618 69.5653 42.9115 69.8696 42.6322 69.9783C42.5678 69.9783 42.5249 70 42.4604 70Z" fill="#575C6B"/>
<path d="M47.48 68C47.273 68 47.066 67.8542 46.9832 67.6459L44.0232 58.6899C43.9404 58.4191 44.0853 58.1275 44.3544 58.0234C44.6235 57.9401 44.9133 58.0859 45.0168 58.3566L47.9768 67.3127C48.0596 67.5834 47.9147 67.875 47.6456 67.9792C47.5835 67.9792 47.5421 68 47.48 68Z" fill="#575C6B"/>
<path d="M32.508 66C32.3058 66 32.1036 65.8728 32.0227 65.6911C31.9418 65.455 32.0834 65.2006 32.3462 65.1098L39.3225 63.0204C39.5854 62.9477 39.8685 63.0749 39.9696 63.3111C40.0707 63.5473 39.9089 63.8016 39.646 63.8925L32.6698 65.9818C32.6091 66 32.5687 66 32.508 66Z" fill="#575C6B"/>
<path d="M33.508 69C33.3058 69 33.1036 68.8728 33.0227 68.6911C32.9418 68.455 33.0834 68.2006 33.3462 68.1098L40.3225 66.0204C40.5854 65.9477 40.8685 66.0749 40.9696 66.3111C41.0707 66.5473 40.9089 66.8016 40.646 66.8925L33.6496 68.9637C33.6091 68.9818 33.5485 69 33.508 69Z" fill="#575C6B"/>
<path fill-rule="evenodd" clip-rule="evenodd" d="M7.19328 75.3712C7.69186 76.9442 9.10449 78 10.7041 78C11.0988 78 11.4935 77.9354 11.909 77.8276L33.6594 70.3289C33.7841 70.2643 33.8879 70.1781 33.9503 70.0488C34.0126 69.9195 34.0126 69.7687 33.971 69.6394L31.956 63.369C31.8521 63.0888 31.5613 62.938 31.2912 63.0242L9.54075 70.5229C8.60592 70.8461 7.83728 71.5141 7.40102 72.4406C6.94399 73.3672 6.88167 74.4015 7.19328 75.3712ZM9.87313 71.5356L31.125 64.2093L32.8077 69.4455L11.5558 76.7718C11.2858 76.8795 11.0157 76.9226 10.7249 76.9226C9.56152 76.9226 8.54359 76.1469 8.19043 75.0264C7.96192 74.3153 8.02424 73.5827 8.33585 72.9147C8.64746 72.2683 9.20836 71.7727 9.87313 71.5356Z" fill="#575C6B"/>
<path fill-rule="evenodd" clip-rule="evenodd" d="M38.9137 81H54.0863C54.575 81 54.9788 80.587 55 80.0652V76.9348C55 76.413 54.575 76 54.0863 76H38.9137C38.4038 76 38 76.4348 38 76.9348V80.0652C38 80.587 38.425 81 38.9137 81ZM53.9163 79.913H39.0625V77.1087H53.9163V79.913Z" fill="#575C6B"/>
</svg>
