<svg width="61" height="60" viewBox="0 0 61 60" fill="none" xmlns="http://www.w3.org/2000/svg">
<path opacity="0.5" fill-rule="evenodd" clip-rule="evenodd" d="M15.6667 17C15.6667 17.552 16.1147 18 16.6667 18H42.6667C43.2197 18 43.6667 17.552 43.6667 17C43.6667 16.448 43.2197 16 42.6667 16H16.6667C16.1147 16 15.6667 16.448 15.6667 17ZM15.6667 11C15.6667 11.552 16.1147 12 16.6667 12H27.9377C28.4907 12 28.9377 11.552 28.9377 11C28.9377 10.448 28.4907 10 27.9377 10H16.6667C16.1147 10 15.6667 10.448 15.6667 11ZM42.6667 22H16.6667C16.1147 22 15.6667 22.448 15.6667 23C15.6667 23.552 16.1147 24 16.6667 24H42.6667C43.2197 24 43.6667 23.552 43.6667 23C43.6667 22.448 43.2197 22 42.6667 22ZM47.6667 6V52.25C47.6667 55.027 45.9207 58 42.9167 58H41.6667C39.4587 58 37.6667 56.208 37.6667 54C37.6667 51.792 39.4587 50 41.6667 50C42.2167 50 42.6667 49.551 42.6667 49C42.6667 48.449 42.2167 48 41.6667 48H11.6667V7.25C11.6667 4.292 15.1507 2 17.9147 2H49.5687C48.5627 3.07 47.6667 4.48 47.6667 6ZM37.1987 58H6.66669C4.45869 58 2.66669 56.208 2.66669 54C2.66669 51.792 4.45869 50 6.66669 50H37.1987C36.2467 51.063 35.6667 52.465 35.6667 54C35.6667 55.535 36.2467 56.938 37.1987 58ZM54.6667 0C54.5777 0 54.4977 0.029 54.4157 0.051C54.3337 0.029 54.2537 0 54.1647 0H17.9147C14.1417 0 9.66669 2.978 9.66669 7.25V48H6.66669C3.35769 48 0.666687 50.691 0.666687 54C0.666687 57.309 3.35769 60 6.66669 60H42.9167C46.7207 60 49.6667 56.449 49.6667 52.25V6C49.6667 3.87 51.7777 2 54.0297 2C54.1397 2 54.2487 1.97 54.3557 1.938C54.4557 1.97 54.5567 2 54.6667 2C56.8727 2 58.6667 3.794 58.6667 6C58.6667 8.206 56.8727 10 54.6667 10C54.1147 10 53.6667 10.448 53.6667 11C53.6667 11.552 54.1147 12 54.6667 12C57.9757 12 60.6667 9.308 60.6667 6C60.6667 2.692 57.9757 0 54.6667 0ZM42.6667 34H16.6667C16.1147 34 15.6667 34.449 15.6667 35C15.6667 35.551 16.1147 36 16.6667 36H42.6667C43.2197 36 43.6667 35.551 43.6667 35C43.6667 34.449 43.2197 34 42.6667 34ZM42.6667 40H16.6667C16.1147 40 15.6667 40.449 15.6667 41C15.6667 41.551 16.1147 42 16.6667 42H42.6667C43.2197 42 43.6667 41.551 43.6667 41C43.6667 40.449 43.2197 40 42.6667 40ZM42.6667 28H16.6667C16.1147 28 15.6667 28.448 15.6667 29C15.6667 29.552 16.1147 30 16.6667 30H42.6667C43.2197 30 43.6667 29.552 43.6667 29C43.6667 28.448 43.2197 28 42.6667 28Z" fill="#575C6B"/>
</svg>
