<svg width="47" height="60" viewBox="0 0 47 60" fill="none" xmlns="http://www.w3.org/2000/svg">
<path opacity="0.5" fill-rule="evenodd" clip-rule="evenodd" d="M13.3334 3.281V14H3.55837L13.3334 3.281ZM24.3334 58H2.33337C2.33337 58 2.33337 17 2.33337 16H14.3334C14.8854 16 15.3334 15.552 15.3334 15V2H42.3334V38C42.3334 38.551 42.7834 39 43.3334 39C43.8854 39 44.3334 38.551 44.3334 38V1C44.3334 0.448 43.8854 0 43.3334 0H14.0614C13.7774 0 13.5114 0.118 13.3204 0.326L0.593374 14.282C0.425374 14.466 0.333374 14.706 0.333374 14.956V59C0.333374 59.551 0.783374 60 1.33337 60H24.3334C24.8854 60 25.3334 59.551 25.3334 59C25.3334 58.449 24.8854 58 24.3334 58ZM35.5744 47.292C33.3064 49.569 29.3584 49.569 27.0904 47.292C25.9574 46.153 25.3324 44.641 25.3324 43.029C25.3324 41.419 25.9574 39.905 27.0904 38.768C28.2234 37.629 29.7314 37 31.3334 37C32.9354 37 34.4414 37.629 35.5744 38.766C36.7084 39.905 37.3324 41.417 37.3324 43.029C37.3324 44.641 36.7084 46.156 35.5744 47.292ZM46.0394 57.295L37.1864 48.441C38.5674 46.959 39.3324 45.04 39.3324 43C39.3324 40.867 38.5004 38.854 36.9904 37.348C35.4794 35.833 33.4694 35 31.3334 35C29.1964 35 27.1874 35.833 25.6764 37.348C24.1634 38.856 23.3324 40.867 23.3324 43C23.3324 45.138 24.1634 47.146 25.6764 48.657C27.1864 50.168 29.1944 51 31.3314 51C32.8854 51 34.3704 50.555 35.6494 49.732L44.6254 58.709C44.8214 58.902 45.0774 59 45.3334 59C45.5924 59 45.8484 58.902 46.0394 58.709C46.4304 58.318 46.4304 57.682 46.0394 57.295Z" fill="#575C6B"/>
</svg>
