<svg width="60" height="60" viewBox="0 0 60 60" fill="none" xmlns="http://www.w3.org/2000/svg">
<path opacity="0.5" fill-rule="evenodd" clip-rule="evenodd" d="M47.16 52.084C45.53 50.799 43.29 50 40.47 50H38.17L35.39 46.414C38.54 43.821 40.76 39.316 40.92 35.282C43.87 32.133 41.9 24.071 41.38 22.153C42.06 20.038 41.73 17.712 40.46 15.87C38 12.319 32.86 11.727 27.82 14.748C19.9 14.826 18.68 18.216 18.65 21.929C18.22 23.062 16.37 28.747 19.05 35.054C19.13 39.172 21.4 43.836 24.65 46.468L21.96 50H19.65C16.81 50 14.54 50.827 12.88 52.11C6.28 46.986 2.02 38.983 2.02 30C2.02 14.57 14.57 2.017 30 2.017C45.43 2.017 57.98 14.57 57.98 30C57.98 38.969 53.74 46.959 47.16 52.084ZM39.35 22.399C40.4 26.02 41.3 32.385 39.27 34.065C39.04 34.256 38.91 34.542 38.91 34.841C38.91 40.005 34.71 46.556 29.99 46.556C25.27 46.556 21.07 40.005 21.07 34.841C21.07 34.701 21.04 34.563 20.98 34.436C18.27 28.271 20.56 22.563 20.59 22.506C20.63 22.384 20.66 22.252 20.66 22.12C20.66 19.085 21.21 16.763 28.11 16.763C28.3 16.763 28.48 16.71 28.64 16.611C30.62 15.382 32.5 14.76 34.23 14.76C36.17 14.76 37.79 15.562 38.8 17.017C39.76 18.407 39.97 20.182 39.38 21.764C39.3 21.966 39.29 22.19 39.35 22.399ZM30 57.983C24.31 57.983 19.02 56.274 14.6 53.35C15.86 52.537 17.55 52 19.65 52H22.47C22.8 52 23.1 52.037 23.29 51.775L26.42 47.634C27.55 48.221 28.75 48.572 29.99 48.572C31.26 48.572 32.49 48.204 33.64 47.589L36.85 51.811C37.04 52.066 37.34 52 37.66 52H40.47C42.54 52 44.2 52.518 45.44 53.325C41.01 56.266 35.7 57.983 30 57.983ZM30 0C13.46 0 0 13.458 0 30C0 46.542 13.46 60 30 60C36.44 60 42.41 57.953 47.3 54.486C47.46 54.42 47.61 54.302 47.74 54.176C55.17 48.71 60 39.91 60 30C60 13.458 46.54 0 30 0Z" fill="#575C6B"/>
</svg>
