<svg width="50" height="60" viewBox="0 0 50 60" fill="none" xmlns="http://www.w3.org/2000/svg">
<path opacity="0.5" fill-rule="evenodd" clip-rule="evenodd" d="M36 24C36.55 24 37 23.552 37 23C37 22.448 36.55 22 36 22H16C15.448 22 15 22.448 15 23C15 23.552 15.448 24 16 24H36ZM8 18H42C42.55 18 43 17.552 43 17C43 16.448 42.55 16 42 16H8C7.448 16 7 16.448 7 17C7 17.552 7.448 18 8 18ZM2 2H48V58H2V2ZM49 0H1C0.448 0 0 0.448 0 1V59C0 59.551 0.448 60 1 60H49C49.55 60 50 59.551 50 59V1C50 0.448 49.55 0 49 0ZM16 12H36C36.55 12 37 11.552 37 11C37 10.448 36.55 10 36 10H16C15.448 10 15 10.448 15 11C15 11.552 15.448 12 16 12ZM33.288 48.803C32.93 48.68 32.532 48.777 32.266 49.044L28.516 52.794L26.728 45.647C29.344 45.259 31.572 43.681 32.842 41.477L38.225 50.445L33.288 48.803ZM18.978 37.25C18.978 33.666 21.894 30.75 25.478 30.75C29.063 30.75 31.978 33.666 31.978 37.25C31.978 40.834 29.063 43.75 25.478 43.75C21.894 43.75 18.978 40.834 18.978 37.25ZM22.434 52.801L18.684 49.051C18.416 48.779 18.02 48.684 17.66 48.809L12.724 50.451L18.111 41.472C19.38 43.678 21.607 45.257 24.222 45.646L22.434 52.801ZM33.83 39.234C33.81 39.202 33.779 39.183 33.756 39.153C33.897 38.541 33.978 37.905 33.978 37.25C33.978 32.564 30.164 28.75 25.478 28.75C20.792 28.75 16.978 32.564 16.978 37.25C16.978 37.904 17.059 38.538 17.2 39.149C17.174 39.182 17.14 39.203 17.118 39.238L9.618 51.738C9.404 52.096 9.434 52.553 9.696 52.876C9.958 53.204 10.392 53.334 10.792 53.199L17.706 50.898L22.27 55.458C22.462 55.648 22.716 55.75 22.978 55.75C23.066 55.75 23.156 55.738 23.24 55.719C23.588 55.622 23.858 55.346 23.944 54.996L25.475 48.87L27.006 54.992C27.094 55.34 27.362 55.615 27.71 55.715C27.8 55.738 27.891 55.75 27.978 55.75C28.24 55.75 28.494 55.648 28.678 55.454L33.24 50.895L40.154 53.195C40.55 53.33 40.99 53.199 41.252 52.872C41.514 52.546 41.544 52.094 41.33 51.734L33.83 39.234Z" fill="#575C6B"/>
</svg>
