<svg width="9" height="9" viewBox="0 0 9 9" fill="none" xmlns="http://www.w3.org/2000/svg">
<path fill-rule="evenodd" clip-rule="evenodd" d="M0.375 4.5C0.375 2.22183 2.22183 0.375 4.5 0.375C6.77817 0.375 8.625 2.22183 8.625 4.5C8.625 6.77817 6.77817 8.625 4.5 8.625C2.22183 8.625 0.375 6.77817 0.375 4.5Z" fill="#FF7100"/>
<path fill-rule="evenodd" clip-rule="evenodd" d="M6.49151 3.01611C6.63796 3.16256 6.63796 3.4 6.49151 3.54644L4.16385 5.98394C4.0174 6.13039 3.77996 6.13039 3.63352 5.98394L2.50852 4.85894C2.36207 4.7125 2.36207 4.47506 2.50852 4.32861C2.65496 4.18217 2.8924 4.18217 3.03885 4.32861L3.89868 5.18845L5.96118 3.01611C6.10763 2.86967 6.34507 2.86967 6.49151 3.01611Z" fill="white"/>
</svg>
