<svg width="15" height="14" viewBox="0 0 15 14" fill="none" xmlns="http://www.w3.org/2000/svg">
<path fill-rule="evenodd" clip-rule="evenodd" d="M7.1459 -0.000488281C6.49128 -0.000488281 5.88418 0.364537 5.54288 0.965427L0.25542 10.3921C-0.0824035 11.0167 -0.0843903 11.7744 0.24513 12.3918C0.574651 13.0092 1.18619 13.3935 1.85157 13.4013L12.4334 13.4013C13.1056 13.3935 13.7171 13.0092 14.0467 12.3918C14.3762 11.7744 14.3742 11.0167 14.0414 10.4013L8.74891 0.965427C8.40761 0.364537 7.80051 -0.000488281 7.1459 -0.000488281ZM1.32978 11.7317C1.21994 11.5259 1.22061 11.2733 1.33152 11.0682L6.61287 1.65261C6.72618 1.45415 6.92814 1.33301 7.14587 1.33301C7.36407 1.33301 7.56644 1.45468 7.67961 1.65392L12.9653 11.0774C13.0711 11.2733 13.0718 11.5259 12.962 11.7317C12.8521 11.9375 12.6483 12.0656 12.4265 12.0682L1.8584 12.0682C1.64347 12.0656 1.43963 11.9375 1.32978 11.7317ZM6.52167 4.73454V7.4012C6.52167 7.76939 6.80116 8.06787 7.14593 8.06787C7.4907 8.06787 7.77019 7.76939 7.77019 7.4012V4.73454C7.77019 4.36635 7.4907 4.06787 7.14593 4.06787C6.80116 4.06787 6.52167 4.36635 6.52167 4.73454ZM7.58735 8.93013C7.83114 9.19047 7.83114 9.61259 7.58735 9.87293C7.34356 10.1333 6.9483 10.1333 6.70451 9.87293C6.46073 9.61259 6.46073 9.19047 6.70451 8.93013C6.9483 8.66978 7.34356 8.66978 7.58735 8.93013Z" fill="#FF6E00"/>
</svg>
